<?xml version="1.0" encoding="utf-8"?>
<!-- Generator: Adobe Illustrator 30.0.0, SVG Export Plug-In . SVG Version: 9.03 Build 0)  -->
<svg version="1.0" id="Layer_1" xmlns="http://www.w3.org/2000/svg" xmlns:xlink="http://www.w3.org/1999/xlink" x="0px" y="0px"
	 viewBox="0 0 1748 2480" style="enable-background:new 0 0 1748 2480;" xml:space="preserve">
<style type="text/css">
	.st0{fill:#003283;}
</style>
<g>
	<path class="st0" d="M1488.1,1291c-3.3-17.9-4.6-23-9.7-38.8c-1.9-5.7-3.4-10.9-3.4-11.5c0-0.7-1.3-4.6-2.9-8.7s-3.9-10.2-5.1-13.5
		c-2.8-7.7-8.8-20.2-28.7-59.8c-19.1-38.1-24.5-48.7-27.2-53.1c-1.1-1.8-2.7-6.4-3.5-10.3s-1.9-8.1-2.5-9.4
		c-0.5-1.3-1.7-4.8-2.6-7.8c-0.9-2.9-2.6-6.8-3.8-8.5c-9.6-13.8-14.9-12.7-12.8,2.7c0.9,6.8,0.9,8.3-0.3,9.6c-2.1,2-4.3,0-5.6-5.3
		c-0.6-2.2-1.7-5.2-2.4-6.6s-1.8-4.7-2.5-7.4c-2-8-6.7-16.5-9.7-17.2c-1.7-0.4-3.1-0.1-4.2,1c-2.7,2.7-1.7,9.7,3.3,22.1
		c4.6,11.6,5.8,18.5,3,18.5c-0.8,0-2.6-1.7-4-3.7c-1.4-2.1-4.2-6.2-6.2-9.1c-2.1-2.9-5.1-7.1-6.8-9.5c-5.4-7.8-15.7-18.7-17.5-18.7
		c-3.1,0-5,1.1-5,3c0,3.2,3,10.2,5.7,13.4c1.6,1.8,5.3,6.8,8.3,11c3,4.3,6.7,9.4,8.3,11.3c3.4,4.5,3.7,7.7,0.5,6.8
		c-4.3-1.3-13.1-8-23.3-17.7c-5.7-5.4-10.9-9.8-11.6-9.8c-2.2,0-4.9,3.2-4.9,6c0,4.5,5.2,10.8,26.1,31.5
		c20.5,20.4,23.6,24,28.3,33.3c5,9.8,4.4,19.2-1.1,19.2c-3.6,0-6.5-1.8-19-11.8c-5.7-4.5-10.9-8.2-11.8-8.2c-1.8,0-3.4,3-2.7,5
		c1.6,4.5,17.1,23,29.5,35.2c27.5,26.9,53.2,52.7,57,57.2c9,10.6,26.7,37.7,29.2,44.6c0.7,2,2.4,5.3,3.9,7.4
		c1.4,2.1,2.6,4.3,2.6,4.8c0,1.2,5.4,13.7,8.6,20c2.8,5.6,6.8,22.6,8.5,36.3c1,7.9,1,12.8,0.1,22.5c-1.2,12.4-5.5,30.8-8.6,36.7
		c-0.8,1.7-3.4,8.6-5.7,15.4c-2.3,6.8-4.8,13.7-5.6,15.3c-0.9,1.6-2.4,5.4-3.4,8.5c-3.2,9.4-7.3,18.1-8.3,17.8
		c-2-0.7-2.6-6.6-2.2-20.7c0.6-18.7-0.7-40.4-3.2-55.5c-1.1-6.6-2.3-14.7-2.7-18c-0.3-3.3-1.7-13-3-21.5s-2.6-18.4-3-22
		c-0.3-3.6-1.5-9.9-2.5-14c-2.8-11.3-3.3-17.6-3.4-39.5l-0.1-20l-3-6c-1.6-3.3-3.7-6-4.5-6c-2.5,0-5.8,6.3-6.5,12.3
		c-0.3,3.1-0.8,6.7-1.1,8c-0.5,2.6-3,4-4.5,2.5c-0.6-0.6-1.1-9.2-1.3-19.9c-0.2-21.1-0.8-23.4-5.7-23.4c-2.5,0-3.3,0.6-4.6,3.8
		c-1.3,3.1-1.4,6.2-0.9,18.3c0.7,14.9,0,19.9-2.8,19.9c-1.7,0-2.5-2.2-6.9-18.5c-3.6-13.6-9.4-28.4-12.4-31.7
		c-2.3-2.6-5.5-1.9-6.7,1.5c-1.3,3.7,0.9,13.7,6.4,28.7c4.8,13.2,5.7,17.4,4,18.5c-1.6,1-7.5-4.8-10.1-10c-1.1-2.2-3.6-6.5-5.4-9.5
		c-1.9-3-4.1-7-4.9-8.8c-3-6.6-5.6-9.3-8.4-9c-5.8,0.7-5.3,10.4,1,23.3c1.9,3.9,7.9,15.6,13.3,26c10.4,20.3,12.4,26.3,12.5,38
		c0,7.6-2.5,13.5-5.7,13.5c-1.8,0-9.1-7.2-11.9-11.7c-9.6-15.4-12.5-18.6-15.4-16.8c-0.5,0.3-1,1.6-1,2.8c0,3.3,9.7,30.7,12.3,34.7
		c1.2,1.9,8,15,15.1,29s13.5,26.6,14.2,28c5.7,10.5,12.7,27.3,15.4,36.5c1.7,6.1,4,13.5,5,16.5c1.1,3,2.4,9.6,3,14.5
		c0.6,5,1.5,11.5,2,14.5c2.1,11.8,4,28.8,4,35.3c0,16.9-5.2,39.9-12.6,55.2c-5.9,12.2-8.6,16.3-19.2,29.8
		c-15.7,19.7-18.8,23.5-26.4,32.4c-4.3,5.1-8.3,10.4-8.8,11.8c-0.7,1.8-1.7,2.5-3.6,2.5c-2.5,0-2.6-0.2-2.1-4
		c0.3-2.2,1.7-5.4,3.1-7.1s2.6-3.7,2.6-4.5c0-0.8,2.4-6.3,5.4-12.2c6.6-13.1,16.6-34.1,16.6-34.9c0-0.3,2.2-5.1,4.9-10.7
		c2.6-5.6,5.2-11.2,5.6-12.6c0.4-1.4,2.5-5.6,4.7-9.5c5.4-9.8,5.9-10.4,9.8-15.4c7.8-10.1,11.5-17.1,12.9-24.6
		c1.1-5.9,0-8.5-3.5-8.5c-2.7,0-4.6,1.7-10.8,9.3c-4.2,5.2-7.3,6-6.8,1.7c0.4-2.7,5.4-12.2,8.2-15.5c4.9-5.8,8.3-13.1,8.4-18
		c0.1-4.5-0.1-5-2.3-5.3c-1.5-0.3-3.4,0.6-5.3,2.5c-3.2,3-11.7,15.2-14.8,21.4c-2.3,4.4-6.5,8-8.6,7.2c-1.9-0.7-1.8-2.6,0.6-7
		c1.1-2.1,2-4.3,2-5.1c0-0.7,1.1-4.4,2.4-8.2c3.8-10.9,7.1-29.6,5.7-32.6c-0.8-1.9-1.8-2.5-3.7-2.2c-3.2,0.4-7.5,8.3-10,18.3
		c-6,24.5-7,27.3-9.6,24.6c-1-0.9-1.3-6.7-1.3-21.9c0-11.4-0.2-21.3-0.3-21.9c-0.3-1.7-4.3-1.6-6.8,0.2c-4.7,3.2-7.4,15.8-9.9,45.5
		c-1.5,18.5-3.3,28-6,32.9c-0.7,1.4-2.4,4.5-3.5,6.8c-2.3,4.5-8.2,10.3-10.4,10.3c-0.8,0-2.4-0.9-3.7-1.9c-2.3-1.9-2.4-2.5-2.7-18.3
		c-0.5-20.8-1.9-23.3-7.2-12.7c-3.9,7.9-7.6,26.4-9.5,47.9c-0.8,9.1-2.4,22.4-3.4,29.5c-1.1,7.2-2.2,16.4-2.6,20.5
		c-1.4,17-4.8,34.8-7.8,40.6c-0.8,1.6-1.8,4.5-2.2,6.4c-1.2,5.8-9.1,25.8-13.7,34.5c-1.1,2.2-4.2,8.1-6.7,13.1
		c-7.6,14.7-15.4,25.5-26.8,37.2c-9.9,10-18.4,16.5-28.3,21.6c-13.9,7.2-18.2,9.1-23,10.2c-3,0.7-10.8,3.1-17.4,5.3
		c-6.5,2.3-14.6,4.8-17.9,5.7c-3.3,0.8-7.8,2.4-9.9,3.5c-4.7,2.4-9.6,2.5-10.5,0.2c-0.4-0.9-0.1-1.9,0.5-2.1
		c2.9-0.9,17.5-11.5,30.1-21.7c4-3.3,8.5-6.9,10-8c3.8-2.8,28.9-23.3,33.7-27.5c22.3-19.4,30.4-25.5,40.9-31
		c19.4-10.1,30.4-21.7,25.3-26.8c-1.7-1.7-6.3-1.5-7.8,0.2c-0.6,0.8-2.8,2-4.8,2.7c-2,0.6-4.6,1.8-5.7,2.5c-2.4,1.7-5.5,1.8-5.5,0.2
		c0-1.9,6.6-8.6,9.2-9.3c1.3-0.4,3.2-1.5,4.3-2.5c1.9-1.7,5.2-3.8,12-7.6c4.4-2.5,9.5-7.6,9.5-9.5c0-2.8-4.8-3.8-10.6-2.3
		c-5.6,1.4-10.8,4.2-16.9,8.9c-8.7,6.9-14.5,8.9-14.5,5.2c0-0.8,5-6.8,11.1-13.3c10.8-11.7,18.6-21.1,20.8-25.2
		c2.5-4.7,0.3-10-3.7-8.8c-2.2,0.7-11.6,9.7-18.7,17.9c-11.8,13.5-14.3,16-15.9,15.4c-0.9-0.4-1.6-1.5-1.6-2.5
		c0-2.5,12.1-25.8,17.3-33.6c3.3-4.8,3.4-6.1,0.2-8.2c-5.1-3.3-9.7,0.4-19.9,16.1c-3.9,6.1-7.5,11.8-8.1,12.7
		c-0.5,0.9-2.2,3.4-3.6,5.5c-1.4,2.1-5.4,8.3-8.7,13.8c-6.3,10.2-11.2,15.2-20.8,21.3c-7.5,4.8-14.4,4.2-14.4-1.3
		c0-2.3,4.5-15.2,5.9-16.9c1.7-2,7.1-13.4,7.1-14.9c0-4.5-7.3-1.5-12.7,5.2c-2,2.5-4,4.8-4.3,5.1c-1.4,1.2-12.9,16.9-15.1,20.7
		c-1.3,2.2-5.1,8.5-8.4,13.8c-3.3,5.3-6.9,11.3-8.1,13.3c-2.4,4.3-20.6,32.4-25.5,39.5c-8.6,12.4-28.4,33.6-39.4,42.2
		c-4.2,3.3-9.6,7.6-11.8,9.6c-7.9,6.7-26.2,18.6-34.2,22.2c-24.2,10.7-30.8,12.5-50,13.4c-14,0.6-48.7-3.1-69-7.5
		c-17.5-3.7-21.5-3.8-33.6-0.8c-14.7,3.7-48.9,8.6-64.9,9.3c-27.4,1.2-43.7-2.4-68.5-15c-17.7-9-47.6-32.4-63.7-49.9
		c-14.1-15.2-16.9-19-42.3-58c-0.5-0.8-1.9-2.8-2.9-4.4c-4.2-6.2-14.4-22.1-16.6-25.9c-2.8-4.6-9.7-12.9-19-22.7
		c-4.5-4.8-7-6.8-8.5-6.6c-2.7,0.4-3,3.8-0.8,8.1c1,1.9,3.7,7.1,6,11.5c4.9,9.3,6.1,14.8,4,17.6c-1.1,1.6-2.1,1.8-6,1.2
		c-8.7-1.3-19.3-9.9-27.8-22.7c-8.5-12.7-13.5-20.4-15.4-23.5c-1.1-1.8-3.8-5.9-6-9.1c-2.2-3.2-4.5-6.7-5-7.8
		c-1.7-3.3-9.4-8.5-12.6-8.5c-5,0-6,7.2-1.5,10.9c1.3,1.1,6.3,9.3,12.8,21.4c4.8,8.8,6.4,14.7,3.9,14.7c-0.8,0-5.5-4.7-20.8-20.8
		c-9.3-9.8-14.6-14.2-17.2-14.2c-0.6,0-1.6,1-2.2,2.3c-2.1,4.7,3.9,13.4,22.4,32.2c5.4,5.5,9.6,10.6,9.5,11.5c-0.6,3-4.5,2-11.8-2.8
		c-18.7-12.3-27.9-14.5-28-6.8c0,2.4,5.6,7.7,10.7,10.1c2.1,1,5.6,3,7.8,4.5c7.8,5.3,13.9,9,14.7,9c0.5,0,0.8,1,0.6,2.3
		c-0.5,3.5-5.5,3.5-10.1-0.1c-2-1.7-5.2-3.3-7.1-3.6c-4.2-0.8-8.6,0.8-8.6,3.1c0,1.7,12.7,16.3,14.1,16.3c0.4,0,4.2,2,8.5,4.5
		c4.4,2.5,8.6,4.5,9.5,4.5c1.7,0,19.6,13.6,38.9,29.5c6.3,5.2,13.9,11.2,21.5,17c31,23.6,37.4,28.4,40.2,29.8c1.7,0.9,4,2.7,5,4
		c1,1.4,3.4,3.2,5.3,4.2c3.3,1.7,3.4,1.9,1.4,2.7c-2.5,1.2-20.9-3-29.4-6.7c-3-1.3-8.4-3-12-3.9c-17.3-4-34.6-11.1-47.5-19.5
		c-18-11.7-35-31.2-46.6-53.6c-1.4-2.7-4.1-7.9-6.1-11.5c-1.9-3.6-4.1-8.1-4.7-10.1c-0.6-2-2.1-4.5-3.1-5.4c-1.1-1-2-2.5-2-3.4
		s-1.4-5.4-3-10.1c-1.7-4.6-3-9.1-3-9.9s-1.2-3.8-2.6-6.8c-2.6-5.6-3.3-9.3-8.4-44.8c-1.7-11.5-3.2-21.6-3.5-22.3s-1.2-8.6-2-17.5
		c-1.7-17.4-3.7-27.5-8.6-42.9c-2.3-7.2-3.7-9.9-5.1-10.4c-3.6-1.1-4,0.9-3.9,16.3c0.1,12.4-0.2,15.4-1.6,18.3
		c-2.5,4.8-5.5,5.1-9.5,0.8c-8.9-9.4-12.2-18.7-15.3-42.3c-4.7-35.3-6.2-43.4-8.9-47c-5.6-7.3-10.2-5.1-9.2,4.5
		c0.4,3,0.9,12.7,1.2,21.5c0.6,15.1,0.5,16.1-1.3,17.8c-1.8,1.6-2.2,1.6-3.3,0.2c-0.7-0.8-1.9-4.7-2.6-8.7
		c-1.8-9.3-7.9-28.4-10.4-32.6c-2.1-3.4-6.4-5.2-8.3-3.3c-2.5,2.5-0.3,14.6,5.7,32.1c7.3,21.3,7.5,22.1,6,22.7
		c-1.8,0.7-7.1-4-8.8-7.7c-4.1-8.8-16.2-24-19.1-24c-0.7,0-1.9,0.8-2.9,1.9c-2.5,2.8-1.1,9.2,3.3,14.9c2.1,2.6,5,7,6.6,9.7
		c1.6,2.8,3.5,5.6,4.3,6.4c1.7,1.7,3.2,5.6,3.2,8.2c0,3.9-3.8,2-9-4.6c-5-6.3-8.3-8.4-11.5-7.1c-4,1.5,0.6,18.2,7.4,26.5
		c2.2,2.8,5.8,7.2,7.9,9.9c2.1,2.6,6.4,9.9,9.5,16.2c10.6,21.8,16.7,34.8,16.7,35.7c0,0.6,1.3,2.9,3,5.1c1.6,2.3,3,4.7,3,5.3
		c0,1.2,18.7,38,20.1,39.3c0.5,0.6,0.9,2.6,0.9,4.6c0,2.8,0.5,3.9,2.1,4.7c1.2,0.5,4.5,4.8,7.3,9.5c7.6,12.7,12.7,20.5,16.9,25.9
		c2,2.7,3.7,5.1,3.7,5.4c0,1.9,21.1,26.7,31.5,37.1c16,16,23.1,21.5,48.5,38c1.9,1.3,7.1,4,11.5,6s9.1,4.4,10.5,5.4
		c2.7,1.8,14.1,6.1,28,10.4c16.9,5.2,40.8,7.1,54.5,4.4c11.1-2.2,16.7-1.5,24.3,3c11.3,6.7,31.8,16.8,35.9,17.8
		c1.5,0.3,4.7,1.7,6.9,3c2.3,1.3,7,3,10.5,3.8s13.8,3.3,22.9,5.5c10.3,2.6,20.6,4.4,27.5,5h0c18.3,1.4,43.1,1.2,53.5-0.4
		c10.8-1.6,30.8-6.6,36.3-8.9c7.1-3.1,10.3-4.6,17.2-8.6c3.9-2.2,7.6-4,8.3-4c1.6,0,13.6,5.6,17.2,8c4.2,2.9,20.7,7.7,36,10.6
		c12.7,2.4,16.8,2.7,33.5,2.7c18.8-0.1,30.4-1.2,42-3.8c27.6-6.3,34.5-8.1,37.8-9.7c2.1-1.1,6.6-2.8,10-3.8c3.4-1.1,8.7-3.3,11.7-5
		c3-1.6,7.8-4,10.5-5.4c2.8-1.3,10.2-5.3,16.5-8.8c6.4-3.6,12.8-6.8,14.3-7.2c1.6-0.4,4.9,0,7.9,0.9c3.5,1,9.5,1.5,18.9,1.5
		c13,0,14.5-0.2,33.3-4.9c10.8-2.7,21.3-5.9,23.2-7c1.9-1.2,3.9-2.1,4.5-2.1c0.9,0,15.1-6.9,22.9-11.2c17.8-9.8,45.9-32.4,59.6-47.9
		c18.2-20.7,31.2-39,49.3-69.7c4.2-7,4.5-7.2,7.5-6.7c3.6,0.7,13.2-3.1,17.9-7.1c1.6-1.3,3.3-2.4,3.8-2.4c2.4,0,14.3-9.7,22-17.8
		c17.2-18.2,25.4-29.7,35.6-50.2c7.6-15.1,13.2-29.5,17.2-44c3-11,8.1-36.9,8.1-41.4c0-4.8,4.3-12.6,6.9-12.6c1.1,0,2.8-1,4-2.2
		c1.1-1.3,4.3-4.8,7.1-7.8c2.7-3,5-5.7,5-6.1s1.6-2.7,3.6-5.1c3.7-4.4,11-18.3,14.3-27.3c1-2.7,3.3-8.5,5-12.7
		c3-7.5,6.4-23.8,9.7-46.8C1493,1339.3,1492,1312,1488.1,1291z"/>
	<path class="st0" d="M409.1,1642c-2.2-1.8-15.8-17.2-22.1-25c-2.5-3-7.4-8.9-11-13.1c-6.9-8.1-14.9-18.8-17-22.9
		c-0.7-1.4-2.8-4.7-4.6-7.5c-4.2-6.4-7.7-15.8-11.5-30.9c-5.3-21-4.9-44,1.4-78.6c4.8-26.3,8.6-38.6,18.3-59
		c2.5-5.2,5.6-11.7,6.9-14.5c1.3-2.7,6.2-13,10.9-22.7c4.7-9.8,8.6-18,8.6-18.2c0-0.3,1.4-2.7,3-5.3c1.7-2.6,3.4-6.1,3.9-7.8
		c0.5-1.6,3-8.8,5.5-16c5.1-14.4,5.5-17,2.7-18.4c-2.3-1.3-5.5,1.6-8.6,7.6c-2.3,4.5-8.8,13.7-12.3,17.6c-1.7,1.7-3.6,2.7-5.4,2.7
		c-4.6,0-6.2-5-5.5-17.3c0.7-10.8,1.8-14,11.3-32.8c3-5.9,5.4-11.2,5.4-11.8s1.1-2.8,2.3-4.9c5-7.9,9.9-20.4,10-25.3
		c0.2-11.8-7.8-9.9-13.6,3.3c-2.7,6.1-10.5,19.3-14.4,24.5c-2.7,3.5-5.3,3.4-5.3-0.2c0-1.3,2.2-9.2,4.9-17.6
		c7-21.8,7.7-30.9,2.2-30.9c-2.2,0-6.5,6.1-7.9,11c-0.5,1.9-1.9,5.8-3,8.6c-1.1,2.8-3.2,10.2-4.7,16.5s-3,12.5-3.4,13.9
		c-0.9,2.8-3.9,3.9-5.2,1.8c-0.5-0.7-0.9-9-0.9-18.5c0-17,0-17.2-2.6-20.2c-1.4-1.7-3.4-3.1-4.3-3.1c-3.5,0-4.3,4.6-4.2,23.6
		c0.2,18.6-0.1,21.4-2.5,21.4c-2,0-3.1-2.8-3.7-9.7c-0.6-7.2-3.8-13.3-6.8-13.3c-1.5,0-2.8,1.7-5.1,6.8l-3.1,6.7l0.6,17
		c0.6,18-1,39.3-3.8,52.8c-0.9,3.9-2.4,15.3-3.5,25.2c-1.1,9.9-2.2,18.7-2.5,19.5c-1.7,5.8-3.6,43.5-3.3,67.7
		c0.2,19.7,0,27.5-0.9,28.4c-1.4,1.4-3.3,0.3-3.3-2c0-1-1.1-4-2.5-6.7c-2.7-5-4.9-10.3-9-20.9c-1.3-3.3-4.4-10.9-6.9-17
		c-2.5-6-4.6-11.6-4.6-12.3s-1.1-3.4-2.4-6c-3.3-6.6-6.6-23.6-7.3-37.2c-0.5-9.7-0.1-14,2.2-27.5c1.8-10.9,3.4-17.3,4.9-20
		c1.3-2.2,2.6-5.3,3-7c0.7-2.8,1.8-5.5,7.3-17.5c9.4-20.6,12-25.1,31.1-53.6c2.1-3.2,10.3-11.8,50.1-52.6
		c19-19.4,34.4-38.4,35.6-43.9c1.5-6.5-2.9-6.2-10.2,0.7c-2.7,2.5-5.9,5.3-7.3,6.2c-1.4,0.9-4.1,2.9-6,4.4c-1.9,1.5-4.9,3-6.7,3.4
		c-2.6,0.5-3.4,0.2-4.8-1.9c-1.4-2.2-1.5-3.4-0.5-8.8c1.2-6.3,4.6-14.3,8.2-18.9c1.1-1.4,10.6-11.4,21.1-22.4
		c10.5-10.9,20.4-21.6,22-23.7c5.6-7.5,5.4-13.9-0.4-13.9c-2.5,0-4.5,1.3-9.8,6.4c-15.4,15-25.5,23.1-27.3,22
		c-2.4-1.5-0.5-4.8,13.9-24.4c10.5-14.3,12.6-21.2,6.7-21.8c-4.6-0.4-10.6,5.8-20.8,21.3c-9.7,15-14.8,21.1-16.4,20.1
		c-1.4-0.9-1.6-4.8-0.2-6.2c1.3-1.3,8-22,8.6-26.9c0.7-4.6-0.9-9.5-3-9.5c-0.8,0-2.8,1.2-4.5,2.6c-3,2.5-4.7,6.7-9,23.1
		c-0.6,2.3-1.9,5-2.9,5.9c-0.9,1-2.1,3.1-2.7,4.8c-0.5,1.7-1.7,3.1-2.5,3.1c-2.1,0-2.4-4.6-0.6-10c2.9-8.4,1.5-14.5-3.4-14.5
		c-2.1,0-8.3,7.7-11.9,14.8c-1.2,2.3-3,8.4-4,13.4c-2.3,11.5-6.9,22.9-15.4,38.3c-0.9,1.7-4.2,8.4-7.3,15c-3.1,6.6-7.8,16.5-10.5,22
		c-11.4,23.9-15.7,33.2-16.4,35.5c-0.4,1.4-1.8,4.3-3.1,6.5c-2.5,4.4-6,13.8-7.5,19.9c-0.5,2.1-1.9,5.9-3.1,8.5
		c-2.3,5-5.8,17-8.8,29.6c-1,4.4-2.5,10.2-3.4,12.9c-0.9,2.7-2,9.4-2.6,15c-0.5,5.5-1.4,13.9-2,18.6c-1.3,10.7-1.3,27.9,0,39.5
		c0.6,5,1.5,13.7,2.1,19.5c0.6,5.8,2.1,13.9,3.4,18s2.6,9.1,3,11c0.4,1.9,1.6,5.4,2.6,7.7c1.1,2.3,1.9,4.4,1.9,4.8
		c0,2.6,14.1,29,18.8,35.2c8.3,10.9,17.6,20.3,20,20.3c3,0,6,4.5,6.7,9.8c1.5,12.8,6,35.3,8,40.2c1.2,3,2.5,7.2,2.9,9.2
		s2.7,8.3,5.2,14c2.5,5.7,5.1,11.9,5.9,13.9c3.6,9.9,18,32.9,27.4,43.9c9.6,11.2,26.4,27.4,31.6,30.4c2.8,1.6,6.8,4.1,9,5.5
		s5.8,3.4,8,4.3h0c2.2,0.9,4.7,1.6,5.5,1.5C412,1648.4,411.4,1644,409.1,1642z"/>
	<path class="st0" d="M643.1,1082.1c-3.1-1-7.6-2.4-10.1-3.1c-11.2-2.9-32.5-15.7-42.1-25.4c-8-8-9.2-6.8-16.6,15.4
		c-0.8,2.5-2.5,7-3.8,10c-4.1,9.5-8.5,21.1-8.5,22.6c0,0.8-1.3,4-3,7.1s-3,6.4-3,7.4c0,2.9-3.9,11.2-6.7,14.1
		c-1.7,1.8-4.4,3.1-8,3.8c-6.4,1.4-10.8,4.8-12.4,9.8c-0.6,2-1.8,4.8-2.5,6.2c-0.8,1.4-2.3,5-3.4,8.2c-1.2,3.1-2.7,6.2-3.5,6.8
		c-0.8,0.7-1.5,1.7-1.5,2.2c0,1.4-4.7,13.4-8,20.3c-4.4,9.2-15,33.1-15,33.9c0,0.3-2,4.8-4.4,9.9c-2.4,5-4.9,11-5.6,13.2
		s-2.3,5.6-3.5,7.5s-3.9,7.8-6,13c-2,5.2-4.5,10.9-5.5,12.5c-1,1.7-3.5,7-5.5,11.9c-2,5-4.3,9.9-5.1,11.1c-0.7,1.1-2,3.8-2.7,6
		c-0.8,2.2-3.5,8.4-6.1,13.7c-2.5,5.3-4.6,9.9-4.6,10.2s-2.7,6.2-6,12.9c-3.3,6.8-6,13-6,13.8s-1.1,3-2.4,4.9s-2.7,4.6-3.1,6
		c-0.4,1.4-3.1,7-5.9,12.5c-6,11.5-9.6,20.4-9.6,24.1c0,3.8,4.8,15.1,8.7,20.5c3.8,5.4,9.6,9.2,16.3,10.7c2.5,0.6,10.1,3.1,16.9,5.6
		s13.1,4.6,14,4.6c0.9,0,3.4,0.9,5.5,2.1c2.1,1.1,9.8,4,17.1,6.4s14.6,5,16.3,5.9c1.7,0.9,5.5,2.3,8.4,3.1c2.9,0.8,8.9,2.8,13.3,4.4
		s10.3,3.7,13,4.6c2.8,1,7.3,2.6,10,3.7c2.8,1.1,9.7,3.5,15.5,5.5c5.8,1.9,12.8,4.3,15.5,5.4c2.8,1.1,10.4,3.8,17,6
		s13.6,4.7,15.5,5.6s6,2.4,9,3.4c3,0.9,9.3,3.1,14,4.9c4.7,1.8,10.8,3.9,13.5,4.7c2.8,0.9,7.9,2.7,11.5,4c3.6,1.4,11.2,4.1,17,6
		c5.8,1.8,12.3,4.3,14.5,5.4c2.2,1.1,6.3,2.6,9,3.3c2.8,0.8,10.2,3.3,16.5,5.6s13.6,4.7,16.1,5.4c2.6,0.8,7.3,2.8,10.5,4.5
		c14,7.4,24.8,12.2,29.7,13.1l0,0c7.5,1.3,24.5,0.6,28.7-1.3c6-2.6,13.2-8.9,18.5-16.1c17.3-23.7,31.8-31.1,56-28.6
		c16.8,1.7,27.6,9,42,28.5c5.1,6.8,14.1,14.6,19.2,16.6c4.5,1.7,18.2,2.2,26.3,1c6.5-1,18.6-5.6,24-9.1c0.8-0.6,4.7-2.5,8.5-4.4
		c7.1-3.4,9-4.1,34.6-12.5c8-2.7,15.8-5.5,17.5-6.4c1.6-0.8,7.2-2.9,12.4-4.6s12.9-4.4,17-6s9.8-3.6,12.5-4.4
		c2.8-0.9,8.2-2.7,12-4.2c8.5-3.1,21.6-7.8,39.5-13.9c7.4-2.6,14.5-5.2,15.8-5.8c1.2-0.7,8.4-3.3,16-5.9c7.5-2.6,18.2-6.3,23.7-8.3
		c20.1-7.4,24.1-8.7,29.5-10.2c3-0.9,7-2.4,9-3.3c1.9-1,8.2-3.2,14-5c5.8-1.8,13.2-4.6,16.6-6.2s6.7-2.9,7.5-2.9
		c1.6,0,17.5-5.3,22.4-7.5c1.7-0.7,5.7-2,9-3c13.3-3.7,21-13.4,23-29.1c0.7-5.1-2.1-16.1-5-19.4c-0.7-0.8-1.6-2.6-2-4
		c-0.4-1.4-1.3-3.5-2.1-4.7c-1.8-2.9-15.4-32.4-15.4-33.5c0-0.5-1-2.5-2.3-4.6c-1.3-2-4.1-8-6.2-13.2c-2.1-5.2-4.7-10.6-5.7-11.9
		s-1.8-2.8-1.8-3.4c0-1.1-4.3-11.2-9.1-21.2c-1.5-3.3-4-8.7-5.4-12c-1.5-3.3-3.7-8.1-5.1-10.7c-1.3-2.7-2.4-5.2-2.4-5.8
		c0-0.5-2.2-5.6-4.9-11.2c-2.7-5.7-5.4-12.1-6.1-14.3c-0.7-2.2-2.3-5.6-3.4-7.5c-1.2-1.9-2.8-5.3-3.5-7.5c-0.7-2.2-3.5-8.6-6.2-14.3
		c-2.7-5.6-4.9-10.7-4.9-11.2s-2.2-5.6-5-11.3c-2.7-5.7-5-10.7-5-11.1s-1.7-4.4-3.9-8.9c-2.1-4.5-5.2-11.5-6.7-15.6
		c-3.8-9.9-7.4-13.7-13.9-14.7c-7.3-1-11.6-5.7-14.5-15.4c-1.2-4.1-2.8-8.4-3.5-9.6c-0.7-1.1-2-4-2.8-6.5
		c-3.4-9.7-7.5-20.6-9.4-24.9c-1.1-2.5-3.5-8.9-5.4-14.3c-3.2-9.3-6.5-14.7-8.9-14.7c-0.6,0-3.9,2.6-7.3,5.8
		c-3.4,3.1-8.5,7.4-11.3,9.4c-6.7,4.9-24.1,13.5-30.1,14.8c-2.6,0.6-6.1,1.7-7.8,2.4c-5.1,2.3-6.6,2.7-18,4.7
		c-18,3.1-40.3,4.2-72,3.5c-30.1-0.6-64.4,0.6-70.5,2.4c-1.9,0.6-8.2,1.9-14,2.9c-12.6,2.3-28.9,6.8-31.1,8.7
		c-0.9,0.8-3.8,2.1-6.6,2.9s-5.6,2.2-6.3,3c-0.7,0.8-1.8,1.5-2.6,1.5c-0.7,0-2.9,1.3-4.7,3c-4.3,3.8-8.5,3.9-11.7,0.5
		c-1.3-1.4-2.9-2.5-3.5-2.5c-0.7,0-2.4-0.9-3.8-2c-1.4-1.2-4.1-2.6-5.9-3.1c-1.8-0.6-5.5-2.2-8.3-3.5c-6.5-3-20.6-7.1-27.5-7.9
		c-3-0.4-9.1-1.6-13.5-2.7c-10.7-2.6-39.6-3.8-73.5-3.1C690.6,1090.5,660,1087.9,643.1,1082.1z M516.2,1231c-0.2,2.5-0.9,5.2-1.7,6
		c-1.3,1.2-1.5,0.7-1.5-4.9c0-5.4,0.2-6.2,1.8-5.9C516.2,1226.5,516.4,1227.4,516.2,1231z M434.5,1406.9c0.3,1.5,0.1,4-0.4,5.4v0
		c-2.5,6.4-7-0.6-5-7.8c1.1-3.8,4.3-6.7,6.6-5.8c1.2,0.5,1.1,0.9-0.2,3C434.5,1403.2,434.1,1405.1,434.5,1406.9z M501.7,1433.4
		c-0.9-1,0.2-2.4,1.9-2.4c0.8,0,1.4,0.7,1.4,1.5C505,1434,502.9,1434.6,501.7,1433.4z M483,1426.1c-1.4,2.4-1.4,2.4-2.9-0.7
		c-1.2-2.8-0.7-4.4,1.4-4.4C483.3,1421,484.2,1423.8,483,1426.1z M473.7,1422.4c-0.4,0.9-1.7,1.6-3.1,1.6c-2.9,0-4-3.1-2.1-5.7
		c1.3-1.7,1.5-1.7,3.6,0.4C473.4,1419.9,474,1421.5,473.7,1422.4z M494.8,1428.3L494.8,1428.3c0.2,1.1-0.3,1.7-1.6,1.7
		c-2.2,0-3.2-0.8-3.2-2.7C490,1425.2,494.4,1426.1,494.8,1428.3z M666.7,1498.4L666.7,1498.4c-0.4,0.9-1.1,1.6-1.7,1.6
		c-1.6,0-2.4-3-1.1-4.3C665.4,1494.2,667.5,1496.3,666.7,1498.4z M641.1,1487c2-1.3,3.9,0,3.9,2.6h0c0,3-2.5,3.2-4.1,0.3
		C640.1,1488.2,640.1,1487.6,641.1,1487z M834,1508.1c0,3.7-2.6,4.4-4.6,1.4c-1.9-3-1.5-5.9,1-6.3
		C832.6,1502.7,834,1504.6,834,1508.1z M821.5,1510c0.8,0,1.5,0.5,1.5,1c0,0.6-0.7,1-1.5,1s-1.5-0.4-1.5-1
		C820,1510.5,820.7,1510,821.5,1510z M846.4,1500.4c-1,2.7-4.4,2-4.4-0.9c0-1.8,0.5-2.5,1.9-2.5
		C846.3,1497,847.2,1498.3,846.4,1500.4z M683.5,1504c-0.3,0.6-1.3,1-2.1,1c-1.6,0-2-4.5-0.5-5.5
		C682.1,1498.8,684.3,1502.7,683.5,1504z M705.8,1510.3c0.2,1-0.3,1.7-1.2,1.7c-1,0-1.6-0.9-1.6-2.1
		C703,1507.5,705.3,1507.8,705.8,1510.3z M695,1507.5L695,1507.5c-1.6,2-2.7,1.9-3.8-0.2c-1.3-2.5-0.4-4.3,1.9-4.3
		C695.6,1503,696.6,1505.5,695,1507.5z M606.2,1476.1c0.2-2,0.8-2.6,2.8-2.6c2.1,0,2.6,0.5,2.8,3.1h0c0.4,4.1-1.9,6.1-4.2,3.8
		C606.6,1479.5,606,1477.6,606.2,1476.1z M534.4,1451.8c-2,2.9-4.2,2.8-5.4-0.4c-2.4-6.2-0.1-10.7,4.5-8.6
		C536.4,1444.2,536.9,1448.3,534.4,1451.8z M518.6,1449.5c-1.8-1.8-2-3.3-0.7-5.4s5.1-0.4,5.1,2.3h0
		C523,1449.9,520.6,1451.5,518.6,1449.5z M573.6,1461.3c2.5-1.6,2.7-1.6,4.1,0.3c0.7,1,1.3,3,1.1,4.4l0,0c-0.2,1.8-1,2.6-2.8,2.8
		C570.9,1469.4,569.2,1464.2,573.6,1461.3z M562.5,1461.6c-2.2,1.6-2.5,1.7-4.7,0.3c-2.4-1.3-2.5-7.7-0.2-8.6
		c2.3-0.9,4.7,0.9,5.9,4.2C564.3,1459.7,564.1,1460.4,562.5,1461.6z M1081.2,1497.3c0.4-3.9,2.8-4.2,2.8-0.4h0
		c0,2.1-0.5,3.1-1.6,3.1S1081,1499.2,1081.2,1497.3z M1055.1,1503c1.5,0,2,0.6,1.7,2.2h0c-0.4,2.7-3.5,3.7-4.4,1.4
		C1051.6,1504.5,1052.7,1503,1055.1,1503z M1067.8,1502.1c-0.3,3.5-2.4,5.1-3.4,2.5c-0.9-2.4,0-5.1,1.9-5.4
		C1067.8,1498.9,1068.1,1499.4,1067.8,1502.1z M916.5,1503c2.2,0,3,2.7,1.7,5.6v0c-1.4,2.8-2.8,3.1-4,0.7
		C913,1507,914.5,1503,916.5,1503z M949.7,1541.8c-1.5,0.3-1.8-0.1-1.5-2c0.4-2.8,3.3-3.1,3.3-0.3
		C951.5,1540.6,950.7,1541.6,949.7,1541.8z M1314.6,1413.3c-1.5-1.5-0.2-12.3,1.4-12.3c1.4,0,3.1,6.7,2.5,9.3
		C1317.8,1412.8,1315.7,1414.4,1314.6,1413.3z M1225,1446.8c0-1.1,0.7-1.8,1.9-1.8c2.6,0,3.6,1.7,2.1,3.5
		C1227,1451,1225,1450.1,1225,1446.8z M1219.4,1449.9c-1,2-2.6,3.7-3.4,3.9c-2.6,0.5-6-2.7-6-5.7c0-3.7,1.7-5.1,6.2-5.1
		C1221.1,1443,1222,1445.1,1219.4,1449.9L1219.4,1449.9z M1206.8,1453.3c-0.3,0.6-1.5,1.4-2.8,1.5c-2.1,0.3-2.2,0.2-1.1-1.2
		C1204.5,1451.7,1207.3,1451.5,1206.8,1453.3z M1191.9,1459.1c-1.2,2.3-4.2,2.5-6,0.3c-1.6-1.9-0.2-4.7,2.6-5.3
		C1191.1,1453.6,1193.2,1456.7,1191.9,1459.1z M1176.8,1464.7c-0.4,2-3.9,4.2-5.5,3.6c-1.8-0.6-1.6-6.2,0.1-6.9
		C1173.5,1460.6,1177.2,1462.9,1176.8,1464.7z M1140.9,1478.8L1140.9,1478.8c-1.1,2.8-4.5,2.9-5.4,0.2c-0.8-2.6,2-7.1,3.9-6.4
		C1141.2,1473.3,1141.9,1476,1140.9,1478.8z M1277.1,1423c-2.2,0-3.5-1.5-2.6-3c1.2-1.9,4.5-1.1,4.5,1
		C1279,1422.3,1278.3,1423,1277.1,1423z M1268,1423.5L1268,1423.5c-1.4,1.7-3,2-3,0.6c0-1.3,2.9-3.5,3.7-2.8
		C1269,1421.7,1268.7,1422.6,1268,1423.5z M1257.4,1429.1L1257.4,1429.1c-2,2.2-2.6,2.3-4.2,0.7c-1.7-1.7-1.5-2.6,0.9-3.8
		c1.5-0.9,2.4-0.8,3.5,0.1C1258.9,1427.1,1258.8,1427.5,1257.4,1429.1z M1246.8,1432.2c-0.4,2.7-3.5,3.7-4.4,1.4
		c-0.8-2.1,0.3-3.6,2.7-3.6C1246.6,1430,1247.1,1430.6,1246.8,1432.2L1246.8,1432.2z M1292.8,1349c1.7,0,3.2,2.6,3.2,5.6
		c0,4.1-2.2,4.9-5,1.9c-2.2-2.3-2.2-2.5-0.6-5C1291.3,1350.1,1292.4,1349,1292.8,1349z M456,1357.1L456,1357.1
		c-1.2,2.2-2.1,2.4-3.8,0.7c-1.6-1.6-1.5-5,0.2-7.3c1.2-1.6,1.6-1.7,3-0.6C457.2,1351.4,457.5,1354.3,456,1357.1z M469.4,1317.6
		c-0.4-1-0.2-2.2,0.4-2.8c0.8-0.8,1.3-0.7,1.8,0.6c0.4,1,0.2,2.2-0.4,2.8C470.4,1319,469.9,1318.9,469.4,1317.6z M1285,1337
		c2.3,0,2.7,2.9,0.8,4.8c-1.6,1.6-2.7,1.5-3.4-0.3C1281.5,1339.2,1282.7,1337,1285,1337z M463.3,1339.6L463.3,1339.6
		c-0.6,1.7-3.9,1.8-4.5,0.2c-0.7-1.8,0.2-3.8,1.6-3.8C462.2,1336,463.9,1338.1,463.3,1339.6z M481.5,1295c-1,0-1.5-0.6-1.3-1.6
		c0.4-2.1,2.2-2.3,2.6-0.1C483,1294.3,482.5,1295,481.5,1295z M1255,1263c1.9,0,2.9,3.6,1.7,6c-1.7,3.3-3.5,3.6-4.2,0.7
		C1251.8,1267.1,1253.4,1263,1255,1263z M1259.9,1281.3c0.9-1.7,1-1.7,1.7,0h0c0.4,1,0.2,2.3-0.4,2.9
		C1259.7,1285.7,1258.7,1283.4,1259.9,1281.3z M523.4,1214.8c-0.4,2.6-1.3,5.7-2,7c-2,3.1-3.2,2.8-4-1.3c-1.1-6.2,0.8-10.4,4.8-10.5
		C523.7,1210,523.9,1210.7,523.4,1214.8z M872.8,1123.7c3.1,0.4,4.4,0.1,5.9-1.4c4-4,25.6-13.3,34.3-14.8c2.5-0.4,8.7-1.8,13.8-3.1
		c14.8-3.8,31-4.5,91.2-4.2c53.7,0.3,56,0.2,69.5-2c8-1.3,19.6-4,27-6.4c13.2-4.3,32-13.1,36.5-17.2c1.4-1.3,3.3-2.6,4.3-2.9
		c2.6-1,6.3,3.1,7.1,7.9c0.4,2.1,2,6.6,3.6,9.9c3.4,7,9.1,22.4,16.8,45.3c3,8.9,5.8,16.2,6.3,16.2s1.5-1.1,2.1-2.5
		c1.5-3.4,4.2-4,8.4-1.8c4.3,2.1,5.8,4.8,11.9,20.8c2.6,6.6,5.5,13.6,6.4,15.5c1,1.9,2.1,5.5,2.5,8c0.4,2.4,1.4,5.2,2.2,6.1
		c0.9,1,1.6,3.7,1.8,6.2c0.2,3.2,1,5.4,2.9,7.7c2,2.3,2.7,4.2,2.7,7.3c0,5.9-1.3,7.6-3.4,4.6c-0.9-1.3-1.6-3.3-1.6-4.5
		c0-1.1-1.1-4.1-2.4-6.6c-1.3-2.5-2.7-6-3.1-7.9c-0.4-1.9-1.8-4.7-3.1-6.2c-1.3-1.6-2.7-4.1-3-5.5c-0.4-1.5-1.3-3.8-2-5.2
		c-0.8-1.4-2.3-4.5-3.4-7s-2.7-5.6-3.5-7c-0.7-1.4-3-5.9-5.1-10c-3.9-8-5.1-9.7-7.4-10.2c-2.1-0.5-1.4,6.4,1.5,14.2
		c1.3,3.6,3.8,10.6,5.6,15.5c1.7,5,4.4,11.9,6,15.5c2.6,6.2,6.1,15.5,7.9,21.1c0.4,1.4,1.6,4.1,2.5,6c1,1.9,3.7,8.1,6.1,13.9
		c8.8,21.9,10.7,26.3,16.4,38.5c1.6,3.3,3.4,7.8,4.2,10s2,4,2.8,4c2.3,0,1.9-12.8-0.4-15.4c-1-1.1-2.1-4.9-2.8-9.3
		c-0.5-4-1.8-9.1-2.8-11.3c-1.1-2.2-2.2-5.6-2.5-7.6s-1.4-4.7-2.5-5.9c-2.1-2.4-3.4-7.3-2.8-11c0.6-4.3,2.4-3.1,4.2,2.9
		c1,3.3,2.6,7.6,3.7,9.5c1.1,2,1.9,5.6,1.9,8.1c0,3.6,0.5,4.8,2.4,6c2.5,1.7,4.6,6.2,4.6,10c0,1.3,0.6,2.8,1.4,3.4
		c0.8,0.6,1.9,4.1,2.6,7.7c0.8,4.2,2.1,7.5,3.6,9.1c1.3,1.4,2.6,4.2,3,6.2c1.2,7.2,5.6,19.9,9.2,26.6c1.2,2.2,2.2,5,2.2,6.3
		s1.1,4.8,2.5,7.8s2.5,5.9,2.5,6.3c0,0.5,1.1,3.3,2.5,6.3c1.4,2.9,2.5,6.2,2.5,7.3s1,3.8,2.2,6c2.3,4.4,6.2,14.4,8.2,21.5
		c0.7,2.5,2.3,6.4,3.4,8.7c3.8,7.4,3.1,8.9-5.5,11.7c-2.9,1-5.5,2.1-5.8,2.6c-0.3,0.4-2,1.1-3.9,1.4c-1.9,0.4-6.8,2.2-10.8,4
		c-4,1.9-11.6,4.8-16.8,6.6c-5.2,1.7-10.4,3.7-11.6,4.5c-1.2,0.7-4.8,2.1-8,3.1c-3.2,0.9-7.2,2.2-8.9,2.9
		c-8.7,3.7-18.5,7.5-22.5,8.8c-2.5,0.8-7.6,2.7-11.5,4.2c-3.8,1.5-10.3,3.7-14.3,5c-4.1,1.3-7.9,2.9-8.6,3.4
		c-1.2,1-11.2,4.7-21.1,7.8c-2.7,0.8-7,2.5-9.5,3.8c-2.5,1.2-5.8,2.5-7.5,2.9c-1.6,0.4-7.7,2.5-13.5,4.7c-5.8,2.3-12.6,4.7-15.1,5.4
		c-2.5,0.7-6.8,2.2-9.5,3.3c-7.2,2.9-18.3,6.9-22.9,8.2c-2.2,0.6-5.6,2-7.5,3s-5.7,2.4-8.5,3.1c-7.5,1.8-22.7,6.8-24,7.9
		c-0.6,0.5-4,1.7-7.6,2.6c-3.5,0.9-13.1,3.8-21.3,6.5c-8.2,2.7-15.9,4.9-17.1,4.9c-1.3,0-6.6,1.4-12,3c-15.6,4.8-20.1,4.1-23.3-3.4
		c-2.7-6.3-10.8-16-18.5-22.1c-4.4-3.6-8.5-6.5-9-6.5c-0.6,0-1.8-0.6-2.6-1.3c-0.9-0.8-4.6-2.2-8.2-3.1c-3.6-1-8-2.6-9.8-3.7
		c-2.9-1.8-5.1-1.9-23.7-1.9c-18.2,0.1-20.9,0.3-23.6,2c-1.7,1-6.1,2.6-9.7,3.6c-3.6,0.9-7.3,2.3-8.2,3.1c-0.8,0.7-2,1.3-2.5,1.3
		s-3.2,1.8-5.9,4.1c-2.7,2.2-5.7,4.5-6.7,5c-2.3,1.3-15.8,19.2-15.8,21.1c0,0.8-0.8,2.2-1.8,3.1l0,0c-2.4,2.2-8.9,2.1-17.2-0.4
		c-3.6-1-9.6-2.6-13.5-3.4c-7.2-1.6-34.7-10-44.5-13.7c-3-1.1-7.5-2.6-10-3.3s-6.1-1.9-8-2.7c-1.9-0.8-5.3-1.8-7.4-2.2
		c-2.2-0.4-6.7-2.1-10.1-3.7c-3.4-1.6-6.7-2.9-7.3-2.9c-1.2,0-17.9-5.7-25.7-8.8c-2.7-1.1-7-2.6-9.5-3.5c-2.5-0.8-9.4-3.4-15.4-5.6
		c-6.1-2.3-11.6-4.1-12.3-4.1c-0.8,0-3.3-0.9-5.6-2.1c-2.3-1.1-9.8-3.9-16.7-6.3s-14.1-5.3-16-6.4c-1.9-1.2-4.6-2.2-5.9-2.2
		s-4.9-1.1-8-2.4c-12.7-5.3-16.9-6.9-22.1-8.3c-3-0.8-6.4-2-7.5-2.7c-2.3-1.5-11.4-4.9-20.4-7.8c-3.5-1.1-7.7-2.8-9.5-3.9
		c-1.7-1-3.7-1.9-4.4-1.9c-1.7,0-16.2-5.4-22.7-8.5c-2.7-1.3-6.8-2.9-9-3.5s-5.9-2-8.1-3c-2.3-1.1-5.4-2.2-6.9-2.6
		c-3.8-0.9-4.8-4.4-2.9-9.7c4.7-12.7,7.5-20,10.4-27.2c1.7-4.4,3.7-10.1,4.5-12.7c0.7-2.6,2.2-5.9,3.3-7.3c1.1-1.4,2.3-4.5,2.7-6.8
		c0.4-2.3,1.1-4.6,1.5-5.2c0.5-0.5,1.6-3.7,2.5-7c1-3.3,3.1-8.4,4.6-11.4c1.6-3,2.9-6.3,2.9-7.5s0.9-3.9,1.9-6.1s2.1-5.8,2.5-8
		c0.4-2.2,1.7-4.7,2.8-5.6c1.7-1.3,2.3-3.1,2.6-7.5c0.3-5,0.1-6.2-1.7-7.8c-2.7-2.4-2.9-7.9-0.4-7.4c1,0.2,2.3,1.4,3,2.8
		c2.5,5,4.5,2.6,5.8-7.2c0.5-3.9,1-4.8,2.6-4.8c1.5,0,1.9-0.7,1.9-3.7c0-6.3,1.8-11.3,4-11.3c1.7,0,2,0.7,2,4.5c0,5.2-1.6,9.2-4,10
		c-1.3,0.4-1.8,2.2-2.3,7.9c-0.3,4.1-1.2,8.5-2,9.8c-1.8,2.6-3.3,13.8-2.3,16.4c0.6,1.6,0.8,1.6,2.5,0c1-0.9,2.1-3.4,2.5-5.6
		c0.3-2.1,1.6-5.1,2.9-6.7c1.3-1.5,3.2-5.3,4.1-8.3c1-3,3.7-9.5,6.1-14.5c2.3-4.9,4.5-10.1,4.9-11.5c0.4-1.4,1.1-3.4,1.6-4.5
		c4.2-9.3,6.6-15.1,9-21.5c1.5-4.1,4.2-11.1,6-15.5c1.7-4.4,3.6-9.6,4.2-11.5c0.5-1.9,2-5.8,3.3-8.6s2.9-7.1,3.5-9.4
		c0.6-2.4,1.8-5.3,2.5-6.4c1.8-2.9,3.1-13.6,1.6-13.6s-5.1,3.7-5.1,5.3c0,0.7-1.1,2.8-2.5,4.7c-1.3,1.8-3,4.9-3.6,6.9
		s-1.8,4.3-2.5,5.2c-0.8,0.8-1.9,3.1-2.5,5c-0.7,1.9-2,4.5-2.9,5.9c-1,1.4-2.3,4.2-2.8,6.4c-0.6,2.1-1.8,4.6-2.7,5.6
		c-0.8,0.9-2.3,4.1-3.3,7.1c-2.6,7.4-4.9,7.7-5.4,0.8c-0.2-4.2,0.1-5.8,1.9-8.2c1.3-1.7,2.3-4.1,2.3-5.3s2.5-8.3,5.5-15.7
		c11-27.5,11.8-28.7,18.7-28.7c2.2,0,3.7,0.7,4.6,2c0.7,1.1,1.8,2,2.5,2c1.6,0,3.7-4.1,3.7-7.3c0-1.2,1.8-7.1,3.9-13.2
		c2.1-6,4.9-13.9,6.1-17.5c1.3-3.6,3.1-8.3,4.1-10.5c2.3-5.1,6.4-15.8,7.9-21c2.9-9.9,4.9-10.6,14.1-4.7c3.2,2,7.4,4.7,9.4,5.9
		c4,2.5,14.4,6.8,19,7.9c1.7,0.4,5.5,1.7,8.7,3c3.1,1.3,12.7,3.6,21.5,5.1l15.8,2.8h65c55.2,0.1,66.3,0.4,73.5,1.7
		c4.7,0.9,9.7,2.1,11.2,2.6c1.4,0.6,5.5,1.6,9,2.2c9.9,1.7,31.2,10.4,36,14.7C868.1,1122.5,870.6,1123.4,872.8,1123.7z"/>
	<path class="st0" d="M773.5,1470c-2.9,0.1-2.9,0.1-1.1,1.5c2.2,1.7,2.7,1.8,5.1,0.9S777.4,1470,773.5,1470z"/>
	<path class="st0" d="M814.7,1463.8c-1.7-0.6-4.4-2.4-5.9-4c-1.4-1.5-3.4-2.8-4.5-2.8c-1,0-3.5-0.9-5.6-2
		c-4.3-2.3-10.4-2.6-13.2-0.7c-1.1,0.8-3.4,1.7-5.2,2c-5.3,1-5.3-1.7,0-4c3.4-1.5,3.5-3.1,0.2-3.9c-1.7-0.4-3.3,0.1-5.1,1.5
		c-3.9,3.1-10.4,2.8-14.3-0.5c-2.4-2-4.9-2.8-10.5-3.5c-4.1-0.5-9.4-1.6-11.7-2.5c-2.4-0.8-8.9-1.9-14.4-2.5
		c-5.5-0.5-14.5-1.6-19.9-2.4c-10.8-1.6-19.9-1.8-23.1-0.6c-2.1,0.9-0.1,1.3,13,2.6c3.3,0.4,8.9,1.5,12.5,2.6
		c3.8,1.2,11,2.2,17.5,2.6c9.1,0.4,11.7,1,15.2,2.9c2.4,1.4,7.4,2.9,12,3.5c4.3,0.7,8.8,1.9,10,2.6c1.2,0.8,4.9,1.7,8.3,2
		c3.3,0.3,6,0.9,6,1.4c0,3.9,10.2,5.4,13.3,1.9c2-2.4,6.5-2.6,7.4-0.5c0.3,0.9-0.3,2.5-1.3,3.6c-2.4,2.7-0.4,4.1,4,2.8
		c5.3-1.5,9.4-1.1,10.6,1.1c0.7,1.4,2.1,2,4.4,2c2,0,4,0.8,5.1,2v0c1.8,2,6.5,2.8,6.5,1.2C826,1470.8,818.2,1465,814.7,1463.8z"/>
	<path class="st0" d="M995.5,1452.4c4.4-0.9,9.8-2.6,12-3.8c3.2-1.9,6.1-2.4,14.5-2.9c5.8-0.3,12.8-1.3,15.5-2.1
		c2.8-0.8,8.8-2,13.5-2.6s10.1-1.4,12-1.7l3.5-0.7l-3-0.7c-5.3-1.2-16.9-0.9-22.4,0.6c-3,0.8-9.7,1.7-15,2
		c-5.3,0.4-12.6,1.5-16.2,2.6c-3.6,1-9.9,2.3-13.9,2.9c-5.2,0.7-8.1,1.7-10.2,3.5c-3.7,3.1-9.2,3.3-14.6,0.5c-3.9-2-7.2-1.8-7.2,0.4
		c0,0.6,1.4,1.7,3,2.3c1.7,0.6,3,1.6,3,2.2c0,1.6-5,1.3-8-0.4c-3.6-2-9.4-1.8-13.7,0.5c-2.1,1.1-4.6,2-5.5,2c-1,0-3.2,1.3-4.9,2.9
		c-1.7,1.7-4.4,3.3-6,3.6c-1.6,0.4-3.7,1.7-4.7,2.9c-0.9,1.3-2.7,2.8-4,3.5c-1.2,0.6-2.2,1.6-2.2,2.1c0,1.7,3,1.1,5.7-1
		c1.4-1.1,4.1-2,5.9-2c2.4,0,3.7-0.6,4.5-2.1c0.9-1.8,1.7-2.1,5.2-1.6c2.3,0.3,5.1,0.8,6.2,1.1c1.1,0.4,2.7,0.2,3.5-0.4
		c1.3-0.9,1.3-1.2-0.2-2.4c-1-0.7-1.8-2.3-1.8-3.5c0-2.8,4.8-2.9,8-0.1c3.3,2.9,8.5,2.6,11.4-0.5c1.7-1.8,3.4-2.5,6.2-2.5
		c2.2-0.1,5.7-0.8,7.9-1.6C985.7,1454.5,991.1,1453.2,995.5,1452.4z"/>
	<polygon class="st0" points="921,1472 921,1472 921,1472 	"/>
	<path class="st0" d="M973.1,1470c-2.8,0-5.2,1.1-4.5,2.1c0.6,1.1,1.1,1.1,4.2,0.3C975.5,1471.6,975.7,1470,973.1,1470z"/>
	<path class="st0" d="M756.4,1464c-5.9,0-7,1.2-2.6,2.8h0c3.6,1.4,13.2,1.5,13.2,0.2C767,1465.3,762.3,1464,756.4,1464z"/>
	<path class="st0" d="M1037,1454.4c-4.1,0.8-12.6,2-18.8,2.6c-11.8,1.1-15.5,2.1-18.5,4.8c-1.2,1.1-4.5,1.9-9.3,2.3
		c-5,0.4-8.1,1.1-9.2,2.2v0c-1.5,1.6-1.3,1.7,3.3,1.7c5.6,0,12.7-1.7,13.7-3.3c0.3-0.6,7.3-1.4,16.5-1.8c11.4-0.6,17.6-1.4,22.2-2.8
		c4.5-1.5,11.1-2.4,22.5-3c16.4-1,22.3-2.1,21-4.2C1079.4,1451.2,1046.8,1452.4,1037,1454.4z"/>
	<path class="st0" d="M729.5,1457c-6-0.6-14.4-1.8-18.5-2.6c-7.7-1.5-49-3.4-49-2.3c0,2.1,9.3,3.9,25.2,4.9
		c9.7,0.6,19.7,1.8,22.8,2.7c3,0.9,7.3,1.9,9.5,2.3s9.1,0.8,15.3,0.9c8.7,0.1,11.3-0.2,11-1.1C745,1459.5,740.6,1458.2,729.5,1457z"
		/>
	<path class="st0" d="M899.6,1441.4c-0.8-0.3-2.7,0.1-4.3,0.9c-1.5,0.9-4.2,2.2-5.8,3c-3.4,1.6-9.5,7.2-11,10.2
		c-0.6,1.2-2.3,2.1-4,2.3c-3.9,0.5-5.1,1.7-3.5,3.7v0c1.8,2.1,4.6,1.9,6.3-0.6c0.8-1.1,2.8-2.8,4.5-3.7c5.8-3.2,11.3-7.3,11.8-8.7
		c0.3-0.8,2.1-1.9,4-2.5C901.1,1444.8,902.1,1442.4,899.6,1441.4z"/>
	<path class="st0" d="M843.5,1451.8c-1.4-1.2-2.5-2.9-2.5-3.9c0-2-4.9-7-11-11.4c-2.3-1.6-4.6-3.8-5.1-4.7c-0.5-1-1.7-1.8-2.5-1.8
		c-0.8,0-2.6-1.2-3.9-2.6c-1.9-2-3.1-2.5-6.2-2.2c-4.4,0.3-5.1-0.6,7.7,10c8.8,7.4,18,16.4,20.5,20.1c2.1,3.2,5.5,3.6,5.5,0.7
		C846,1454.9,844.9,1453,843.5,1451.8z"/>
	<path class="st0" d="M858.9,1446c-0.8,0-2.5-0.9-3.9-2c-3-2.4-8-2.7-8-0.5c0,0.8,0.4,1.5,0.9,1.5c0.6,0,3.1,1.8,5.6,4s5,4,5.5,4
		s1.5,0.6,2.2,1.3s2.2,1.8,3.3,2.5c2.8,1.6,3.5,1.5,3.5-0.8S861,1446,858.9,1446z"/>
	<path class="st0" d="M934,1425c-2.8,0-4.2,0.5-4.9,1.9c-0.6,1-2.4,2.4-4.1,3.1c-1.6,0.7-3,1.6-3,2c0,0.3-3.3,3.3-7.4,6.5
		c-5.7,4.4-7.6,6.5-8,8.9c-0.3,1.7-1.5,3.9-2.6,4.9c-1.1,0.9-2,2.6-2,3.7c0,2.4,1.4,2.6,3.2,0.5c8.3-9.7,23.1-23.4,30.1-27.8
		C939.1,1426.3,938.7,1425,934,1425z"/>
	<path class="st0" d="M656.5,1448.4c-4.1-1.7-21-2-22-0.3c-1,1.5-0.1,2.1,4.2,2.9c2.1,0.4,7.7,0.8,12.6,0.9
		C660.7,1452,662.4,1450.9,656.5,1448.4z"/>
	<path class="st0" d="M1093.3,1447.5c-1.7,0.3-4.2,1.5-5.5,2.6h0l-2.3,2l12-0.4c12.5-0.5,15.8-1.2,15.2-3.1
		C1112.3,1447.4,1098.4,1446.5,1093.3,1447.5z"/>
	<path class="st0" d="M876,1444c0-0.5-0.7-1-1.5-1s-1.5,0.5-1.5,1c0,0.6,0.7,1,1.5,1S876,1444.6,876,1444z"/>
	<path class="st0" d="M1188.2,1342.8c-3.6,2.3-18.1,6-36.7,9.3c-23.5,4.1-39.8,4.6-70.5,2.3c-15.7-1.1-34.9-1.8-53.5-1.8
		c-25.6,0-30.2,0.3-39.5,2.1c-5.8,1.2-12.5,2.5-15,2.8c-6,0.9-20,5.1-26.4,8c-2.8,1.2-6.7,2.8-8.6,3.6c-1.9,0.7-4,1.6-4.6,2.1
		c-0.6,0.4-3.1,1.9-5.5,3.2c-10.1,5.4-17.3,10.4-28.1,19.4c-6.6,5.5-10.6,9.6-22.9,23.5c-3.2,3.8-5.7,3.1-9.4-2.5
		c-7.2-10.8-31.2-31.4-46-39.3c-3.8-2-7.5-4.1-8.2-4.7c-3.4-2.8-30.1-11.8-39.3-13.3c-4.7-0.8-12.3-2.2-17-3.1
		c-11.2-2.3-60.1-2.5-83-0.4c-24.3,2.3-56.4,1.9-73.4-0.8c-16.6-2.7-36.9-7.7-41.1-10.2c-1.6-1-4.1-2.1-5.5-2.5
		c-4.9-1.4-16.5-6.8-18.5-8.5c-1.1-0.9-3.5-2.2-5.4-2.9c-1.9-0.6-4.2-1.8-5.1-2.6c-2.3-2.1-11.2-6.7-11.8-6.1
		c-0.7,0.8,4.5,6.8,8.6,9.8c3.3,2.4,6.8,4.8,17.7,11.8c1.7,1.1,3.7,2.4,4.5,2.9c0.8,0.6,4.2,2.2,7.5,3.7s9.2,4.2,13.2,6
		c4,1.9,7.8,3.4,8.5,3.4s4.7,1.1,8.8,2.4s13.8,3.6,21.5,5c13.2,2.5,15.8,2.6,45.1,2.6c26.2,0,31.8,0.3,34.9,1.6
		c3,1.2,4.4,1.3,6.2,0.5c3.3-1.5,7.4-1.4,11.6,0.4c5,2.1,8.9,1.9,11.5-0.5c2.5-2.4,3.6-2.5,5.2-0.6c0.6,0.8,2.4,1.6,3.8,1.8
		c2.5,0.3,2.7,0.6,2.4,4.3c-0.2,2.2-0.7,4.3-1.1,4.7c-0.4,0.5-9.9,1-21.1,1.2c-11.3,0.3-27,0.9-35,1.5c-8,0.5-24.4,1-36.5,1
		c-19.8,0-24.5-0.3-46.5-3.4c-26-3.7-34.5-5.4-42.5-8.7c-2.7-1.1-7.5-2.8-10.5-3.8s-7.3-2.7-9.5-3.9c-2.1-1.2-4.4-2.1-5.1-2.1
		c-0.6,0-1.9-0.9-2.9-2s-3.3-2.3-5.2-2.6c-1.9-0.4-4.5-1.7-5.8-3c-2.5-2.5-5.9-3.3-5.3-1.1c0.2,0.6,1.8,1.9,3.5,2.7
		c1.8,0.8,3.6,2.5,4.2,3.8c0.6,1.2,1.5,2.2,2,2.2s2.8,1.6,5.1,3.5s4.7,3.5,5.3,3.5s2.7,1.1,4.6,2.4c2,1.4,7.2,3.9,11.6,5.6
		c4.4,1.6,10.3,4.1,13,5.5c2.8,1.4,6.8,2.8,9,3.1c2.2,0.4,5.7,1.3,7.9,2c2.1,0.8,8.2,2,13.5,2.8s11.4,2.1,13.7,2.9
		c6.8,2.5,23.3,3,93.9,3.2l68,0.1l15,4.3c8.3,2.3,17.7,4.9,21,5.8s7.4,2.7,9.1,4s4.5,2.3,6.3,2.3c1.9,0,3.8,0.8,4.8,2
		c2.1,2.5,9.4,2.8,11.3,0.5c1.5-1.9,4.9-1.9,7.5-0.2c1.1,0.8,3.5,1.9,5.3,2.5s4.5,2.1,6,3.2c1.5,1.2,6.1,4.2,10.2,6.9
		c4.1,2.6,9.5,6.6,11.9,9l0,0c2.4,2.3,4.8,4,5.4,3.8c2.1-0.7,1.8-2.6-0.7-4.8c-1.4-1.3-2.6-3-2.6-3.9s-1.1-2.2-2.5-2.8
		c-2.6-1.2-3.4-4.2-1.1-4.2c0.7,0,1.9,0.7,2.6,1.5c1.7,2.1,4.4,1.9,6.5-0.5c2.2-2.4,7.7-2.7,9.6-0.4c0.7,0.8,2.5,2.2,4.1,3
		c1.5,0.8,2.8,2.1,2.8,2.9c0,1.3-0.7,2.2-4.5,5.3c-2,1.7-1.9,3.1,0.2,3.9c1.1,0.4,2.5-0.3,4.2-2.3c2.6-3,14.5-11.9,19.1-14.4
		c1.4-0.7,3.8-2.4,5.3-3.6c1.6-1.3,3.7-2.4,4.6-2.4c1,0,3-0.9,4.4-2c3.3-2.6,7.2-2.5,9.8,0.1c2.5,2.5,6.6,2.1,10.6-1.1
		c1.4-1.1,3.8-2,5.2-2c1.5,0,4.2-1.1,6-2.5c1.9-1.3,5.9-2.9,9-3.6c3.1-0.6,6.1-1.5,6.6-1.9c0.6-0.4,7.8-2.5,16-4.6l15-3.9l64.5-0.1
		c68.5-0.1,87.4-0.7,94.9-3c2.5-0.8,8.9-2.1,14.2-2.9c5.4-0.8,10.9-1.9,12.3-2.5c1.5-0.5,5.6-1.7,9.3-2.5c3.7-0.9,7.4-2.2,8.3-2.9
		c0.8-0.8,3.8-2.1,6.5-2.9c7.1-2.1,17.8-7.1,19.4-9c0.7-1,2.1-1.7,3-1.7c1.5,0,8.7-4.9,13.6-9.3c1.1-1,3.4-2.8,5-4.2
		c2.7-2.1,2.8-2.4,1.2-3.1c-1.2-0.4-2.8,0.1-4.5,1.5c-1.5,1.1-6.5,3.9-11.2,6.2s-9.2,4.7-10,5.4c-0.8,0.7-3.7,1.8-6.4,2.4
		c-2.7,0.7-6.2,1.9-7.8,2.7c-5.3,2.7-25.5,7.4-40.9,9.4c-8.5,1.1-18.3,2.4-21.9,3c-8.2,1.2-47.9,1.3-62.9,0
		c-6.2-0.5-21.8-1.2-34.5-1.6c-12.7-0.4-23.7-1.1-24.3-1.7c-1.8-1.3-1.6-8.2,0.2-9.7c0.9-0.8,2.6-1,4.2-0.6c1.6,0.4,5.5,1.1,8.8,1.6
		c5.1,0.7,6.4,0.6,9.1-1.1c3.8-2.3,6.5-2.4,10.6-0.3c2.9,1.5,3.4,1.5,6.5,0c2.9-1.4,7.9-1.6,34.1-1.6c31,0,36.1-0.4,55.2-4.5
		c4.1-0.9,10.1-2.5,13.3-3.5c3.1-1.1,6.4-2,7.2-2c1.3,0,4.3-1.3,22.2-9.6c2.8-1.3,5.6-2.4,6.1-2.4s1.5-0.6,2.1-1.4
		c0.6-0.7,4.7-3.5,9.1-6.1s8.5-5.5,9-6.6c0.6-1,1.7-1.9,2.5-1.9c1.4,0,10.5-8.2,10.5-9.4c0-0.3-0.9-0.6-2-0.6s-2,0.5-2,1
		c0,0.6-1.9,2-4.2,3.1c-2.4,1.1-5.4,2.6-6.8,3.4c-1.4,0.8-3.7,2-5.1,2.7c-1.4,0.7-5.7,2.9-9.5,4.9s-8.7,4.2-10.9,4.9
		C1192.3,1340.7,1189.5,1342,1188.2,1342.8z M839.8,1405.6L839.8,1405.6c-0.4,6.2-3,7.2-5.4,2.1c-1.7-3.6-7-6.7-11.6-6.7
		c-1.4,0-4.2-1.1-6.2-2.5c-2.8-1.9-5-2.5-9-2.5c-3.8,0-6.1-0.6-7.9-2c-1.4-1.1-3.5-2-4.6-2c-2.3,0-4-1.6-7.7-7.3
		c-2.8-4.4-3.1-8.9-0.8-10.8c1.4-1.1,1.8-1,3.1,0.6c0.8,1.1,1.7,3.2,2,4.7s1.6,3.4,3,4.3c1.3,0.9,2.9,2.7,3.5,4.1
		c1,2.1,1.8,2.4,4.7,2.2c3.5-0.3,3.6-0.5,3.9-4.6c0.6-7.7,6.2-6.5,6.2,1.3c0,2.5,0.6,4.8,1.5,5.5c1.2,1,1.8,0.7,3.2-1.9
		c2.5-4.4,5.6-3.9,6.4,1.2c0.8,5.3,2.6,6.9,4.6,4c2.1-3.1,3.3-2.9,7.7,1.6C839.8,1400.4,840.1,1401.1,839.8,1405.6z M776.4,1370.8
		c2.3,1,3.6,4.6,3.6,10.3c0,1.8,0.7,3.2,2,3.9c1.1,0.6,1.8,1.5,1.5,2.1v0c-0.8,1.2-1.3,1.1-6-1.4c-3.6-2-4-2.6-4.3-6.7
		c-0.2-2.4-0.8-5-1.3-5.6C770.3,1371.5,773.6,1369.5,776.4,1370.8z M732.4,1373c1.3-0.5,2.7-1.8,3.1-2.9c0.8-2.5,2.2-2.6,6.4-0.5
		c2.6,1.3,3.8,1.4,5.7,0.5c3.3-1.4,7.7-1.4,9.2,0.1c0.7,0.7,1.2,2.9,1.2,4.9c0,6.7,3.9,7.2,5.5,0.6c0.5-1.8,1.4-2.7,2.7-2.7
		c1.7,0,1.9,0.6,1.6,4.8l-0.3,4.7l-4.5,0.6l0,0c-2.5,0.4-5.4,1-6.6,1.4c-2.7,0.9-5.4-1.8-5.4-5.4c0-3.1-2.4-7-3.7-5.8
		c-0.4,0.5-1.2,2.7-1.8,5c-1.2,5.1-3.6,5.5-5.1,0.9c-0.5-1.7-1.5-3.7-2.1-4.3c-1.5-1.5-3.3-0.3-3.3,2.1c0,2.2-2.8,5.3-4.1,4.5
		c-0.5-0.4-0.9-2.2-0.9-4.1C730,1374.7,730.5,1373.8,732.4,1373z M815.5,1411c-0.3,0.6-1,1-1.5,1s-1.2-0.4-1.5-1
		c-0.3-0.5,0.3-1,1.5-1S815.8,1410.5,815.5,1411z M853.8,1422.8c-1.1-0.9-1.9-3.7-2.4-8.1l-0.6-6.9l2.8,0.4c2.8,0.3,2.9,0.4,3.2,7.2
		C857.1,1422.8,856.3,1424.7,853.8,1422.8z M1007,1381.1c-1.1,2-2.6,2.5-3.3,1.2c-0.2-0.5-1-3.2-1.7-6.2c-1.2-5-1.1-5.5,0.6-6.8
		c4.2-3.1,9.1-0.3,6.6,3.8c-0.7,1-1.2,2.8-1.2,4C1008,1378.2,1007.5,1380,1007,1381.1L1007,1381.1z M974.1,1384
		c-1.5,0-3.6,0.9-4.6,2c-2.8,3.1-5.3,2.6-5.7-1.2c-0.2-2.8-0.7-3.3-2.8-3.3s-2.5,0.5-2.8,3.5c-0.2,1.9-0.8,4.1-1.4,4.7l0,0
		c-1.4,1.7-5.8,1.7-5.9,0.1c-0.3-2.8,0.3-5.4,1.6-6.8c0.7-0.8,2.2-3.4,3.4-5.7c2.8-5.7,5.5-5.7,7.3-0.2c1.3,3.9,1.5,4.1,3.1,2.5
		c0.9-1,1.7-2.7,1.7-4c0-3.1,2.3-5.9,4.6-5.4c1.5,0.2,2,1.4,2.5,5.1c0.3,2.7,1.1,5.2,1.8,5.7C978.9,1382.2,977.2,1384,974.1,1384z
		 M921.2,1394.2c4.7-0.3,4.7-0.4,4.1-3.3c-0.6-3.3,1.5-4.1,3.7-1.4c0.7,0.9,2.3,1.5,3.4,1.3c1.7-0.2,2.2-1.1,2.4-5
		c0.2-3.7,0.7-4.8,2.4-5.3c2.6-0.9,3.6,0.2,4,4.5c0.2,2.8,0.9,3.8,3.6,4.9c1.7,0.8,3.2,2,3.2,2.7c0,2.2-3.8,3.5-7.6,2.8
		c-2.8-0.5-4-0.2-5.9,1.6c-1.7,1.6-3.1,2.1-4.9,1.6c-1.9-0.5-3,0-4.8,2.2l0,0c-1.3,1.5-2.8,3.1-3.4,3.5c-1.7,1-4.3-2.5-4.6-6.3
		C916.5,1394.5,916.5,1394.5,921.2,1394.2z M910.3,1410.8c-2.5,0.4-3.3-1.5-3.3-7.2c0-4.8,2.2-7.6,5.8-7.6c1.9,0,2.2,0.5,2.1,3.8
		c0,2-0.6,5.3-1.3,7.2v0C912.8,1409.2,911.6,1410.6,910.3,1410.8z M993.6,1383.6L993.6,1383.6c-2.5,1.7-4,1.7-9.2-0.3
		c-4.1-1.6-4.2-1.7-3.6-5.7c0.7-6,1.1-6,4.8,0.1c1,1.5,1.3,1.6,2.8,0.4c0.9-0.7,1.6-2.3,1.6-3.5c0-2.7,2.6-6.6,4.4-6.6
		c0.8,0,1.9,0.7,2.6,1.5C998.7,1371.6,996.3,1381.7,993.6,1383.6z M1015.6,1372.2c2.7,0.3,2.9,0.6,2.9,4.3c0,2.9-0.4,4.1-1.7,4.3
		c-2,0.4-2.4-0.3-3.3-5.1C1012.8,1371.9,1012.8,1371.8,1015.6,1372.2z M887.4,1428c-0.9,0-1.4-0.5-1.2-1.2c0.6-1.8,2.8-2.1,2.8-0.4
		C889,1427.3,888.3,1428,887.4,1428z M890.5,1416.3c0.9-8,1-8.3,3.6-8.3c1.6,0,1.9,0.7,1.9,5.3c0,2.8-0.3,6.2-0.6,7.5h0
		c-0.4,1.5-1.4,2.2-3.1,2.2C889.9,1423,889.8,1422.9,890.5,1416.3z M934.4,1411.1c-0.6,1.1-1.8,1.2-2.7,0.3
		c-1.1-1.1,0.3-2.4,1.8-1.8C934.3,1410,934.7,1410.6,934.4,1411.1z"/>
	<path class="st0" d="M781,1432.5c0-1-1.1-1.5-3.5-1.5c-3.4,0-4.7,1.3-2.2,2.3C777.9,1434.4,781,1434,781,1432.5z"/>
	<path class="st0" d="M968.1,1433.8c1.8-0.2,3.4-0.9,3.7-1.6c0.3-1-0.5-1.3-2.9-1c-1.8,0.2-3.4,0.9-3.7,1.6
		C964.9,1433.8,965.7,1434.1,968.1,1433.8z"/>
	<path class="st0" d="M766.7,1427.3c0.3-0.7-1-1.5-3-1.8c-7.2-1.4-13,1.1-6.2,2.6v0C761.8,1429.1,766.3,1428.7,766.7,1427.3z"/>
	<path class="st0" d="M992.8,1427.4c2.5-0.8,0.1-2.4-3.6-2.4c-6.7,0-10.9,2.2-6.4,3.3C984.5,1428.8,990.2,1428.3,992.8,1427.4z"/>
	<path class="st0" d="M678,1418.5c9.7,0.3,18.6,1.2,21.5,2.1c2.8,0.8,7.8,1.8,11,2.3h0c8.7,1.2,34.2,1.3,35,0.1
		c1.5-2.5-6.9-4.2-22.4-4.6c-8.9-0.3-20.1-1.3-26.1-2.4c-5.8-1.1-17.5-2.4-26-2.9c-11.2-0.7-17.2-1.6-21.5-3.1
		c-4.6-1.6-9.4-2.3-20.7-2.7c-8.2-0.3-14.8-1-14.8-1.4c0-1.3-6.8-2.9-16.8-3.8c-6.8-0.6-9.8-1.4-11.3-2.7c-1.7-1.5-3.7-1.9-9.4-1.9
		c-6.9,0-9.6,0.7-8.2,2.1c0.3,0.3,4.3,1.2,8.9,1.8c4.6,0.7,9.6,2.1,11.2,3.1c2.2,1.5,5.5,2,14.5,2.5c10.1,0.4,12,0.8,14.7,2.8
		c2.6,1.9,5.3,2.6,16,3.7c7.1,0.7,16.3,2,20.4,2.8C658.1,1417.2,668.9,1418.1,678,1418.5z"/>
	<path class="st0" d="M805.7,1424c1.8,0,2.3-0.6,2.3-2.5c0-2.2-0.4-2.5-3.4-2.5c-4.1,0-5.6,1.8-3.1,3.7
		C802.6,1423.4,804.4,1424,805.7,1424z"/>
	<path class="st0" d="M925.1,1423c2.7-1.5,2.4-3.8-0.7-4.6c-3.5-0.9-6.3,1.8-4.4,4h0C921.5,1424.3,922.4,1424.4,925.1,1423z"/>
	<path class="st0" d="M943.6,1423.1c3.7-1,4.2-2.9,0.9-3.7c-3-0.7-5.1,0.7-4.2,3C940.7,1423.5,941.6,1423.7,943.6,1423.1z"/>
	<path class="st0" d="M1178.5,1397.9c-1.1-0.4-5-0.8-8.8-0.8c-6-0.1-7,0.2-8.9,2.4c-1.8,2-3.1,2.5-7.2,2.5c-7.3,0-17.6,1.7-21.1,3.3
		c-1.9,0.9-8,1.7-16.2,2c-9.6,0.5-14.7,1.2-19,2.7c-4.2,1.5-10.3,2.4-21.8,3.1c-8.8,0.6-19.1,1.7-23,2.5c-3.8,0.9-15.2,1.9-25.1,2.4
		c-18.4,0.9-26.4,2.5-24.8,5.1l0,0c0.5,0.9,5.8,1,19.3,0.6c14.9-0.4,19.9-0.9,25.1-2.6c4.8-1.5,10.5-2.2,22-2.6
		c8.5-0.4,20.5-1.5,26.5-2.6c6.1-1,15.5-2.3,21-2.9c6.7-0.7,11-1.7,13.4-3.1c2.6-1.6,6.3-2.3,14.8-2.9c8.4-0.6,12.2-1.4,14.6-2.8
		c1.8-1.1,6.2-2.3,10.2-2.7c3.9-0.4,7.9-1.2,9-1.8C1180.4,1398.7,1180.4,1398.7,1178.5,1397.9z"/>
	<path class="st0" d="M826.5,1421.1c0-1.7-5.2-3.4-6.1-2c-0.3,0.6-0.3,1.7,0,2.5C821.2,1423.6,826.5,1423.1,826.5,1421.1z"/>
	<path class="st0" d="M520.9,1413c-4.2,0-4.9-2.6-1.4-5.4c3-2.4,2.7-4.6-0.4-4.6c-1,0-3.5-1.1-5.5-2.5c-2.1-1.4-6-3-8.7-3.6
		c-2.8-0.6-6-2.1-7.3-3.4c-1.2-1.2-4.1-2.6-6.4-3s-4.4-1.1-4.8-1.6c-0.9-1.5-4.1-1-7.8,1.2c-3.9,2.3-4.5,3.6-2,4.6
		c0.9,0.3,2.3-0.3,3.5-1.6c2.2-2.4,6.9-2.9,6.9-0.7c0,0.7-1,2-2.2,2.8c-2.9,2-1.9,4.2,3.2,6.8c2.2,1.1,4,2.4,4,2.9s1.5,1.3,3.3,1.6
		c1.7,0.4,5.2,2,7.6,3.6c2.5,1.6,5.4,2.9,6.5,2.9c1.2,0.1,3.9,0.9,6.1,2v0c4.3,2.1,12,2.7,13,1C529.3,1414.7,524.8,1413,520.9,1413z
		"/>
	<path class="st0" d="M1249.5,1393.6c-1.3,1.4-3.8,2.6-6.6,3c-2.4,0.3-5.7,1.5-7.2,2.6c-1.6,1.1-4.7,2.5-6.9,3.2
		c-5.2,1.5-5.8,3-1.8,5.1c4.6,2.4,3.6,4.8-2.5,5.8c-5.7,0.9-6.5,1.4-4.5,2.7l0,0c2.4,1.5,6.8,1.2,11.3-0.9c2.3-1.1,5.9-2.2,7.9-2.6
		s4.4-1.6,5.4-2.6c0.9-1.1,3.6-2.4,5.8-3c2.3-0.6,5-1.9,6.1-2.8c1.1-1,3.2-2.5,4.8-3.4c3.2-2.1,3.4-3.8,0.7-5.5
		c-1.1-0.7-2-1.9-2-2.7c0-1.9,3.7-1.9,7.4,0c1.6,0.9,3.1,1.3,3.3,1.1c0.8-0.7-0.7-2.6-2-2.6c-0.7,0-2-0.9-3-2c-2-2.4-3.1-2.5-5-0.6
		c-0.8,0.8-3.1,1.8-5.2,2.2S1250.7,1392.3,1249.5,1393.6z"/>
	<path class="st0" d="M544,1392.9c0,0.5,0.6,1.2,1.3,1.5c2.1,0.9,10.2,0.2,10-0.9C555,1392.2,544,1391.6,544,1392.9z"/>
	<path class="st0" d="M1191.2,1393.8L1191.2,1393.8c-0.2,0.8,0.9,1.2,3.6,1.2c4.6,0,7.2-0.8,7.2-2.2S1191.7,1392.3,1191.2,1393.8z"
		/>
	<path class="st0" d="M805.5,1348c0,0.8,2.1,2.2,5,3.3c2.8,1,5.5,2.5,6.1,3.3c0.6,0.8,3.2,2.1,5.7,3c2.5,0.8,5.3,2.4,6.3,3.5
		c0.9,1,2.3,1.9,3,1.9s2.6,1.1,4.2,2.5c1.7,1.4,4.4,2.8,6.1,3.1c1.8,0.4,3.6,1.5,4.2,2.5v0c0.8,1.6,4.9,2.8,4.9,1.4
		c0-0.6-8.3-8.5-11.9-11.3c-1.6-1.2-4.5-2.9-6.3-3.7c-1.8-0.7-4.1-2.3-5-3.4c-1-1.2-2.5-2.1-3.5-2.1c-0.9,0-3.5-1.1-5.8-2.5
		C813.5,1346.6,805.5,1345.7,805.5,1348z"/>
	<path class="st0" d="M913.7,1358c-1.4,0-3.9,1.9-11,8.3c-2.2,2-4.5,3.7-4.9,3.7c-0.4,0-0.8,0.7-0.8,1.5c0,2.1,2.4,1.9,4.5-0.5
		c1-1.1,2.7-2.2,3.9-2.6c1.1-0.3,3.7-1.6,5.6-2.8c1.9-1.3,5.3-3.4,7.5-4.8c2.2-1.4,5.2-2.8,6.6-3.2c1.4-0.3,3.8-1.7,5.3-3.1
		s3.4-2.5,4.2-2.5c2.1,0,7.4-2.9,7.4-4c0-2.1-9.4-1-13.5,1.5c-2.2,1.4-4.7,2.5-5.6,2.5s-3,1.4-4.7,3
		C916.4,1356.7,914.4,1358,913.7,1358z"/>
	<path class="st0" d="M824.3,1342.4c0.3,1,7.4,5.2,16.3,9.4c2.3,1.1,4.5,2.6,4.9,3.2s1.7,1.5,2.9,2l0,0c3.6,1.5,4.8,1.2,4.4-1.2
		c-0.2-1.2-1.3-2.8-2.6-3.4s-3.1-2-4.2-3.1c-1-1.1-3.4-2.3-5.4-2.7s-4-1.5-4.6-2.6C834.1,1340.5,823.2,1339,824.3,1342.4z"/>
	<path class="st0" d="M918.5,1340.7c-2.2,0.2-5.1,1.2-6.5,2.3s-3.6,2.5-5,3c-1.4,0.6-3,1.3-3.6,1.7c-0.6,0.5-3,2-5.3,3.6
		c-2.5,1.7-4.1,3.5-4.1,4.7h0c0,1.1,0.5,2,1,2c2,0,8-2.9,8-3.8c0-0.5,1.5-1.5,3.3-2.2c1.7-0.8,3.9-2,4.8-2.7c1-0.8,3.9-2.2,6.5-3.2
		c3.6-1.2,4.9-2.2,4.9-3.6C922.5,1340.8,921.9,1340.5,918.5,1340.7z"/>
	<path class="st0" d="M802,1344.6c0-1.4-2.9-2.6-6.3-2.6c-2.6,0-1.6,2.3,1.4,3.1h0C800.9,1346.2,802,1346.1,802,1344.6z"/>
	<path class="st0" d="M856.4,1344.5c0.4-1.1-0.6-2.2-2.9-3.6c-1.9-1.2-3.5-2.4-3.5-2.9c0-1.7-12.1-8.1-14.7-7.8
		c-3.9,0.4-4,2.6-0.1,4.2c1.8,0.8,4.2,2.4,5.2,3.5c1.1,1.2,2.7,2.1,3.8,2.1c1,0,3.2,1.4,5,3v0
		C852.6,1346.3,855.5,1346.9,856.4,1344.5z"/>
	<path class="st0" d="M897,1343.9c0.6-1.1,3-2.9,5.3-4c5.9-2.7,12.8-7.9,12.2-9c-1.7-2.7-9.8,0.6-17.5,7.1c-1.4,1.2-3.4,2.7-4.4,3.4
		c-1.2,0.8-1.7,1.9-1.3,3C892.2,1346.7,895.7,1346.4,897,1343.9z"/>
	<path class="st0" d="M949,1344.8c2.5-0.2,4.5-0.7,4.5-1.3c0-1.7-4.9-1.7-7,0C944.6,1344.9,944.8,1345,949,1344.8z"/>
	<path class="st0" d="M887.4,1332.9c0.7,1.1,3.6,0.4,3.6-1c0-0.5,1.7-1.6,3.7-2.4c2-0.9,4.4-2.2,5.2-3.1c2.4-2.2,8.3-6.2,11.1-7.5
		c4.9-2.2,5.5-2.6,5.8-4.3c0.6-2.7-5.4-2.1-8.1,0.8c-1.3,1.3-4,2.7-6,3.1c-2.2,0.4-4.2,1.6-4.8,2.7s-2.4,2.4-4,3
		c-1.6,0.5-2.9,1.6-2.9,2.4c0,0.7-0.9,2.2-2.1,3.3S887.1,1332.3,887.4,1332.9z"/>
	<path class="st0" d="M829.8,1315.7c0.4,0.6,2.6,1.9,5,2.8c2.3,1,4.2,2.1,4.2,2.6s1.2,1.5,2.8,2.1c1.5,0.7,3.5,1.9,4.5,2.7
		c1.1,0.9,4,2.8,6.5,4.2v0c5.7,3.3,8.3,3.8,6,1.2c-0.9-1-1.9-2.8-2.2-4c-0.4-1.2-1.7-2.5-2.9-2.9s-3.7-2-5.5-3.5
		c-1.8-1.6-4-2.9-4.8-2.9c-0.9,0-2.9-1.1-4.6-2.5C834.7,1312,827.7,1312.2,829.8,1315.7z"/>
	<path class="st0" d="M496,1324.3c4.3-6.3,4.1-7.4-1-4.8c-3.5,1.8-7,6.1-7,8.6v0C488,1332,492.2,1330,496,1324.3z"/>
	<path class="st0" d="M555,1303.5c1.1,1,2,2.3,2,2.8c0,1.6,9.4,10.4,12.1,11.2c1.3,0.4,3.8,1.8,5.5,3.1s3.9,2.4,4.9,2.4
		s3.8,1.2,6.3,2.6c2.5,1.5,6.8,2.9,9.6,3.3v0c5.2,0.6,17.2-0.2,18.3-1.3c0.3-0.3-0.3-0.9-1.3-1.3s-2.4-1.3-3-2.1
		c-0.6-0.8-3.7-2-7-2.7c-4.5-0.9-5.8-1.6-5.6-2.8c0.4-2.1-3.1-4.3-9.3-5.8c-2.7-0.7-6.3-2.1-8-3.1c-1.6-1-4-1.8-5.1-1.8
		c-1.2,0-3.8-1.3-5.9-3c-2.3-1.8-5-3-6.9-3c-1.7,0-4-0.7-5-1.5c-1.1-0.8-2.3-1.5-2.8-1.5C552.3,1299,553,1301.7,555,1303.5z"/>
	<path class="st0" d="M1254.5,1329.2c0.5,0.4,1.8,0.8,2.8,0.8c3.2,0,2-4.5-2.3-8.4c-4-3.6-7-4.6-7-2.4
		C1248,1320.5,1252.9,1328.1,1254.5,1329.2z"/>
	<path class="st0" d="M1134,1327c0,0.4,0.8,1.1,1.8,1.4h0c0.9,0.2,6,0.4,11.2,0.3c7.9-0.2,10-0.6,12.5-2.3c1.7-1.2,4.6-2.5,6.5-2.9
		c1.9-0.4,4.7-1.8,6.2-3c1.5-1.3,4.2-2.6,5.9-3c2.1-0.5,3.8-1.8,5.1-4.1c1.1-1.9,2.6-3.4,3.4-3.4c0.7,0,2-1.2,2.8-2.8
		c0.8-1.5,2.3-3.6,3.5-4.6c2.1-1.9,2.8-4.6,1.2-4.6c-0.4,0-2,0.9-3.4,2s-3.9,2-5.5,2c-1.8,0-4.3,1-5.9,2.4c-1.6,1.3-4.6,2.9-6.8,3.5
		s-4.9,1.7-6.1,2.5c-1.1,0.8-3.8,1.8-6,2.2c-4.5,0.8-9.3,3-9.5,4.4c-0.1,0.6-0.2,1.5-0.3,2.2c0,0.6-2.3,1.7-5.1,2.3
		C1139.9,1322.8,1134,1325.6,1134,1327z"/>
	<path class="st0" d="M889.8,1320.7c1-0.9,2.8-1.7,4.1-1.9c1.7-0.2,2.7-1.2,3.2-3.1c0.4-1.6,1.5-3.5,2.5-4.1
		c3.3-2.5-0.5-2.7-4.8-0.3c-4.1,2.2-8.3,8.1-7.1,10C888,1321.8,888.9,1321.5,889.8,1320.7z"/>
	<path class="st0" d="M851.3,1317.8c0.5,0.6,2.3,1.2,4.2,1.2c3.3,0,3.4-0.1,2.4-2.8c-0.9-2.7-6.2-6.2-9.3-6.2
		C847.3,1310,848.3,1313,851.3,1317.8L851.3,1317.8z"/>
	<path class="st0" d="M1244.1,1315.9c2.3-1.2,1.6-2.9-1-2.9c-2.1,0-4.4,2.3-3.4,3.3C1240.6,1317.3,1241.8,1317.2,1244.1,1315.9z"/>
	<path class="st0" d="M504.7,1316c2.3,0,3.3-0.4,2.8-0.9c-1.8-1.7-6.5-1.7-6.5-0.1C501,1315.6,502.7,1316,504.7,1316z"/>
	<path class="st0" d="M1000.8,1258.9L1000.8,1258.9c8.1,4.2,12.5,4.1,16.9-0.5c5-5.3,6-8,7.2-18.5c0.6-5.2,1.5-10.8,2.1-12.4
		c0.5-1.7,1.9-8.2,3-14.5c1.1-6.3,2.5-14.5,3.2-18.2c1.6-9,0.9-9.8-8.6-9.8s-15,3.3-18.8,11.1c-3,6.1-7.8,25.5-7.8,31.2
		c0,3.8,2,8.7,4.8,11.9c2,2.3,7.7,3.3,10.8,1.9c2.2-1,2.4-0.9,2.4,1.7c-0.1,3.9-3.6,11.2-5.5,11.2c-0.8,0-3.7-1.2-6.5-2.6
		c-5.6-2.9-9-2.2-9,2.1C995,1255.5,996.1,1256.5,1000.8,1258.9z M1007,1229c-1-2.4-1-4.3-0.1-8.7c0.6-3.1,1.1-6.8,1.1-8.3
		c0-4.3,6.7-16.8,9.9-18.4c4.2-2.2,5.6-0.7,5.5,6.1c0,6.4-3.8,18.6-8.2,26.8C1011.9,1232.7,1008.9,1233.6,1007,1229z"/>
	<path class="st0" d="M730,1229.7c0,4.9-5.7,12.6-11.8,15.7c-3.7,1.9-6.7,6-5.8,8.1v0c1.5,3.9,11.8-0.6,17.9-7.8
		c5.1-6.1,9.1-14.1,14.3-28.7c2.1-5.8,4.3-11.4,5-12.5c0.6-1.1,1.7-4.2,2.4-7c0.6-2.7,1.8-5.8,2.7-6.7c1.8-2,1.1-4.5-1.3-5.5
		c-2.9-1.1-6.5,1.9-8.4,7.2c-1.1,2.8-3.3,8.8-5,13.5c-1.7,4.6-3.4,8.9-3.9,9.5c-0.4,0.5-1.3,2.9-1.9,5.1c-0.7,2.3-1.9,4.7-2.7,5.4
		S730,1228.3,730,1229.7z"/>
	<path class="st0" d="M1069.7,1254.3L1069.7,1254.3c1.2,1.3,3,0.7,7-2.2c8.7-6.3,12.9-16.3,14.4-34.1c0.6-6.9,1.7-17.8,2.4-24.3
		c0.8-6.5,1.2-12.4,0.9-13.2c-0.8-2-4-2.8-6.2-1.6c-2.6,1.4-2.9,3.2-3.7,18.1c-0.4,6.9-1.3,15.7-2.1,19.5c-0.8,3.9-1.4,8.5-1.4,10.3
		c0,6.6-2.1,11.7-7.1,17.6C1069.3,1249.8,1068.1,1252.7,1069.7,1254.3z"/>
	<path class="st0" d="M918.2,1238.7c0.5,1.7,2.2,4.3,3.9,5.7v0c5,4.3,11.2,3.1,17.2-3.2c3.1-3.3,3.4-7.5,0.5-8
		c-0.9-0.2-3,1.1-4.7,2.7c-3.4,3.3-7.8,4.1-8.7,1.6c-1.2-3,0.6-6.5,4-7.9c1.9-0.8,4.3-2.3,5.4-3.3c1-1,3.5-3,5.4-4.5
		c4-3.1,9.3-11.8,10.3-17c1.4-7.4-5.3-15.1-11.7-13.5c-6.2,1.6-13.4,9.1-15.9,16.7c-0.6,1.9-2,5.4-3,7.7
		C918.6,1220.8,917,1234.3,918.2,1238.7z M935.7,1218.8L935.7,1218.8c-1.7,1.7-3.3,3.2-3.6,3.2c-7-0.2,0.3-20.5,7.4-20.5
		c2.5,0,3.1,0.4,3.3,2.7C943.2,1207.5,939.8,1214.4,935.7,1218.8z"/>
	<path class="st0" d="M854.8,1244.9L854.8,1244.9c4.4,2.6,6.6,0.3,9.3-9.9c1.2-4.7,2.6-10.7,3.2-13.5c2.3-11.6,3.3-14.9,4.4-15.3
		c2-0.6,3.3,4.3,3.3,12.7s0.8,10.1,5,10.1c3.1,0,4.9-1.7,8.4-8.3c1.4-2.7,3.8-6.4,5.5-8.2c1.6-1.9,3.2-4.3,3.6-5.4
		c0.3-1.2,1.3-2.1,2.1-2.1c1.9,0,1.8,5.5-0.2,11.1c-0.8,2.4-2.4,8.3-3.5,13.1c-1,4.7-2.3,9.8-2.8,11.2c-0.8,1.9-0.7,2.9,0.5,4.1
		c3.4,3.4,7.8,0.2,8.9-6.5c0.4-2.4,1.4-5.9,2.2-7.8c0.8-1.9,2.1-6.9,2.9-11.1s2.3-10.3,3.3-13.6c6.4-20.6,9-33.7,7.1-36
		c-0.7-0.8-1.8-1.5-2.6-1.5c-1.9,0-6.1,4.7-9,10c-1.4,2.5-6,10.1-10.2,17c-11.4,18.2-12.1,17.8-14.1-8.7c-0.6-7.8-1.4-14.8-1.7-15.7
		c-0.7-1.8-3.2-2.8-5.4-2.1s-5.6,9-7,17.2c-0.6,3.4-1.8,7.9-2.6,9.9c-0.9,2-2.4,7.3-3.4,11.8c-2.5,10.8-4.8,19.8-7.1,27.4
		C852.6,1242.5,852.5,1243.6,854.8,1244.9z"/>
	<path class="st0" d="M954.3,1244.3L954.3,1244.3c3,1.1,6.5-2.4,10.9-11c2.5-4.8,6.7-12.6,9.3-17.2c2.6-4.7,5.1-9.5,5.6-10.9
		c0.6-1.5,1.6-2.2,2.7-2c3,0.6,2.7,7.6-0.9,18c-3.8,11.2-4.9,19.8-2.6,21.7c2.2,1.7,5.6,0.5,6.1-2.2c0.3-1.2,1.6-7.1,3-13.2
		c7.5-33.3,7.8-36.9,3.1-38.1c-6-1.5-12.7,3.7-17.1,13.4c-3.4,7.4-4.9,6.4-4.9-3.1c0-4.3-0.5-8.1-1.1-8.7c-1.8-1.8-5.3,0.5-5.9,3.8
		c-0.3,1.5-1.5,6.1-2.6,10.2c-1,4.1-2.4,10.9-2.9,15s-1.6,10-2.5,13C952.7,1239.7,952.6,1243.7,954.3,1244.3z"/>
	<path class="st0" d="M823.4,1192.9l-2.6,2.1l-3-2.5c-3.6-3-3.9-3-7.1-0.5c-1.7,1.3-2.8,3.4-3.2,6.3c-0.4,2.3-1.8,6.1-3.1,8.5
		s-2.6,6-3,8s-2,7.2-3.5,11.5c-2.8,7.5-3.7,14.6-2.2,16.1l0,0c0.4,0.4,1.6,0.6,2.7,0.4c2.5-0.4,7.9-10.9,9.6-18.8
		c1.7-7.8,2.5-8.8,7.5-10.1c4-1,4.5-1.5,5.9-5.6c0.8-2.4,3.6-6.7,6.1-9.5c2.5-2.8,4.4-5.6,4.2-6.2
		C831,1190.6,826.1,1190.8,823.4,1192.9z"/>
	<path class="st0" d="M753.9,1233.3c3.8,6.2,5.4,7.1,11,6c3.7-0.7,5.5-0.6,7.3,0.3l0,0c4.2,2.4,8.2,1.7,13.2-2.3
		c2.5-2.1,4.6-4.5,4.6-5.4c0-2.5-2.7-4.2-5.4-3.5c-3.3,0.8-3.8-1-1.5-5.4c2.8-5.4,7.9-17.7,7.9-19.2c0-0.7,1.2-3.5,2.6-6.2
		c2.1-4,2.4-5.3,1.5-7.2c-0.9-2-1.8-2.4-5.4-2.4c-2.4,0-5.8-0.5-7.5-1.1c-2.5-0.9-3.7-0.7-7.4,1.3c-8.1,4.2-12.3,10.6-19.7,29.8
		C751.7,1226.9,751.5,1229.5,753.9,1233.3z M783.4,1196.1c1.6,2.4,1.5,3-2.1,10.9c-4.3,9.4-6.5,13.2-10,18.2
		c-3.8,5.3-7.4,6.4-9.3,2.9c-1.3-2.4,1.1-12.4,3.8-16.1c1.1-1.4,2.4-4.1,3.1-6.1c1.5-4.7,6.9-10.6,10.3-11.3
		C781.2,1194.1,782.2,1194.5,783.4,1196.1z"/>
	<path class="st0" d="M1046.3,1236.9L1046.3,1236.9c1.8,1.1,3.3,2.1,3.4,2.1s1.5-1.2,3-2.6c2.6-2.4,3.3-2.5,8.6-1.9
		c5.6,0.6,5.9,0.5,9.2-2.8c4.3-4.3,4.9-9.2,1.1-10.6c-1.3-0.5-2.5-1.8-2.8-2.8c-0.5-2.3,1.9-21.8,3.2-25.7
		c1.5-4.4,1.3-11.3-0.4-11.9c-3.8-1.5-20.2,3.2-23.3,6.6c-3.2,3.4-7,16.1-8.4,27.8c-1.2,10.2-1.2,10.7,1,15.2
		C1042.1,1232.8,1044.6,1235.8,1046.3,1236.9z M1054.8,1223.8L1054.8,1223.8c-3.3,5.4-6.6,6.1-8.1,1.8c-1.2-3.1,1.2-18.1,3.8-24
		c1.4-3.1,2.5-6.3,2.5-7c0-1.7,5.6-6.6,7.4-6.6C1066.4,1188,1062.9,1210.6,1054.8,1223.8z"/>
	<path class="st0" d="M690.1,1216.3c-2.3,9.9,4.3,19.3,10.5,15.2c3.1-2,4.7-1.9,6.9,0.5l0,0c2.8,3,7.2,2.5,13.8-1.7
		c4.4-2.7,5.7-4.2,5.5-5.7s-1.1-2-3.2-2.1c-4.9,0-5.2-2.3-1.6-10.6c1.8-4,4-8.5,5-9.9c0.9-1.4,2.7-5.6,4-9.3c2.8-8,2.2-10-3.3-10.3
		c-2-0.2-4.5-0.8-5.6-1.3c-4.9-2.7-13.1,0.7-18.5,7.5C699.8,1193.5,691.3,1210.7,690.1,1216.3z M717.5,1186c2.1,0,4.5,2.9,4.5,5.6
		c0,5-12.4,26.5-17.2,29.8l0,0c-2.7,1.9-3.9,2-6.2,0.3c-1.7-1.2-1.7-1.6,0.8-7.5c1.4-3.4,2.6-6.6,2.6-7.2c0-1.7,7.6-13.9,11-17.7
		C714.7,1187.5,716.7,1186,717.5,1186z"/>
	<path class="st0" d="M670.5,1214.8c-3.5,7.6-4.1,11.7-1.9,13l0,0c1.1,0.6,2.5,0.7,3.5,0.1c1.9-1,5.9-7.6,7.8-12.9
		c1.8-4.7,3.2-8,7.3-17.5c2-4.4,5-11.4,6.7-15.5c1.8-4.1,4.1-9.3,5.1-11.5c1.1-2.2,3.1-6.9,4.4-10.5c2.3-5.8,2.4-6.6,1.1-8
		c-1.4-1.3-1.8-1.3-4.2,0c-1.4,0.8-3,2.2-3.4,3c-1.7,3.1-6.7,14.6-7.4,17c-0.4,1.4-1.3,3.4-2,4.5s-3.1,6.7-5.4,12.5
		c-2.3,5.8-5.3,12.2-6.7,14.2c-1.3,2.1-2.4,4.3-2.4,5S671.9,1211.9,670.5,1214.8z"/>
	<path class="st0" d="M1118.1,1226.4c3.6-2.5,3.8-2.5,6.3-0.9c2.4,1.6,2.8,1.6,5.4,0c4-2.6,11.1-10.7,11.2-12.8
		c0-2.3-2.8-3.3-5.2-1.8c-1.6,1-2.3,0.9-3.5-0.1c-1.3-1-1.5-2.8-0.9-10.6c0.4-5.1,1.1-11.5,1.7-14.2c0.6-2.6,0.9-7,0.7-9.6
		c-0.3-5.5,0.5-5.2-11.2-3.8c-4.3,0.5-6.9,1.5-10,3.9c-5.7,4.3-9.5,15.6-10.3,30.2c-0.7,12.1-0.2,14.2,3.8,18.8
		C1109.9,1229.8,1112.9,1230,1118.1,1226.4z M1110,1211.2c0-6.5,3.7-25.2,5.6-28c2.3-3.5,6.1-4.9,8-3c3.5,3.4-2.3,34-7,37
		C1113,1219.6,1110,1216.8,1110,1211.2z"/>
	<path class="st0" d="M640.4,1223.6L640.4,1223.6c3.1,1.4,9.4,1,12.6-0.6c0.8-0.5,2.8-2.2,4.4-3.9c2.4-2.5,2.7-3.3,1.6-4.6
		c-1.7-2.1-4.2-1.9-7.3,0.5c-4,3.2-8.7,2.4-8.7-1.5c0-3,3-5.5,8-6.6c6.2-1.4,14.6-6.6,18.7-11.5c3.1-3.9,3.6-5.3,4-11.2
		c0.5-5.9,0.3-6.9-1.6-8.6c-1.2-1.1-4.1-2.1-6.8-2.3c-4.1-0.4-5.4,0-8.9,2.4c-7.7,5.3-11.8,11.1-19.3,27.4
		C632.2,1213.6,633.3,1220.4,640.4,1223.6z M651.4,1192.2c4.1-6.9,8.7-11.2,12.1-11.2c6.3,0,2.9,8.6-6.5,16.5
		C649,1204.2,646.1,1201.4,651.4,1192.2z"/>
	<path class="st0" d="M1146.1,1221.6c1.5,1.8,4.3,1.8,5.9-0.1c0.7-0.8,1.4-6.3,1.7-13.7c0.7-15.1,1.1-16.4,5.6-17.2s6.2-2.8,4.8-5.5
		c-1.8-3.3-1.2-6.7,1.9-10.6c3.8-4.8,4.7-8.2,2.8-10.1c-1.9-2-4.5-0.8-6.4,2.8c-1.3,2.4-2,2.9-3.7,2.3c-1.2-0.4-3.9-0.9-5.9-1.2
		c-3.2-0.4-3.9-0.2-4.7,1.8C1146.5,1174.1,1144.7,1219.9,1146.1,1221.6L1146.1,1221.6z"/>
	<path class="st0" d="M585.4,1211.9c0.7,0.6,4.4,1.7,8.2,2.5l0,0c9,1.8,9.4,1.8,15.1,0.5c6.7-1.6,11.8-5.3,16.7-12.2
		c4-5.6,4.1-6.1,4.2-13.9v-8l5.6-5.2c6.7-6.1,9.3-12,8.6-19.5c-0.7-6.9-2.9-9.8-10.3-13.3c-5.1-2.3-7.9-3-14-3.1
		c-6.4-0.2-7.9,0.1-8.9,1.5c-0.8,1.4-0.8,2.3,0.2,3.8c1.8,3,1.5,6.3-1.2,10.3c-1.4,2-4.1,7.3-6.1,11.7c-1.9,4.5-4.6,9.8-6,11.8
		s-2.5,4.1-2.5,4.6c0,0.8-5.2,11.4-9.4,19.1C583.6,1206.2,583.5,1210.4,585.4,1211.9z M599,1195.2c5.7-11.2,8.6-15.2,11.2-15.2
		c2.7,0,10.6,5,11.3,7.3c1.6,4.6-4.7,15.1-10.8,18c-4.5,2.2-13,2.2-14.7,0.2C594.9,1204.2,595.4,1202.5,599,1195.2z M628.5,1171.5
		L628.5,1171.5c-2,2.1-3.3,2.5-7.8,2.5c-4.1,0-5.8-0.5-7.2-2c-1.8-2-1.7-2.2,2.6-10.6c4.7-9.2,7.9-13.4,10.3-13.4
		c0.8,0,2.8,1.2,4.5,2.6c2.6,2.2,3.1,3.3,3.1,7.1C634,1162.7,632,1167.6,628.5,1171.5z"/>
	<path class="st0" d="M759.6,1175.5c1.5-2.3,1.5-2.7,0-5c-3.9-6-11-0.8-7.6,5.6C753.5,1178.8,757.6,1178.5,759.6,1175.5z"/>
	<path class="st0" d="M1088.8,1169.3c4.2,1.1,8.6-2,7.5-5.1c-2-5.5-11.3-3.5-9.9,2.1C1086.7,1167.7,1087.8,1169.1,1088.8,1169.3z"/>
	<path class="st0" d="M1356.5,909.1c-3.3,1.6-6.4,2.9-6.8,2.9c-0.5,0-3.2,1.1-6,2.3c-2.9,1.3-6.4,2.7-7.8,3
		c-1.5,0.4-4.3,2.5-6.3,4.7c-3.2,3.5-3.6,4.6-3.6,9.3c0.1,5.5,2.2,9.1,6.9,11.7c3.3,1.7,11.9-0.9,23.3-7.1c6.6-3.5,9.5-2.5,15,5.5
		c2.6,3.8,5.2,8.2,5.7,9.8c0.9,2.6,0.7,3.2-1.7,5.5c-1.5,1.4-5.1,4.1-8,6c-7.3,4.9-9.2,7.6-9.2,13.1c0,5.1,2.6,9.9,6.9,12.6l0,0
		c4.2,2.7,8.2,1.3,19.2-6.6c5.7-4,13.2-9.4,16.8-11.9s11.1-7.8,16.6-11.7s13.4-9.5,17.4-12.4c18.5-13.1,27.9-25.6,25.7-34.2
		c-1.7-6.9-12.9-13.8-25.3-15.8c-11-1.7-34-0.4-45.8,2.7C1373.9,902.5,1363,906,1356.5,909.1z M1406.4,934.9L1406.4,934.9
		c-2.8,1.7-5.6,3.1-6.2,3.1c-1.1,0-4.2-4.3-7-9.7c-1.9-3.6,0.6-4.9,11.6-6.3c11.7-1.4,13.6-1.2,14,1.6
		C1419.1,925.9,1415.3,929.4,1406.4,934.9z"/>
	<path class="st0" d="M325.7,937.5c5.3,0.8,13.4-1.6,23.3-6.6c6.9-3.6,13.9-5.4,17.2-4.6c3.7,1,8.3,5.1,9.8,8.7
		c1.1,2.6,1,3.7-0.5,7.6c-2.4,6.4-5.8,9.9-11.9,12.5c-4.5,1.8-5.9,3-8,6.9c-1.4,2.6-2.6,5.5-2.6,6.4c0,2.8,3.2,8.2,5.9,9.9v0
		c10.5,6.5,32.7-7.4,39.3-24.7c3.3-8.7,3.3-23.8,0-31.1c-3.2-7-10.5-14.1-18.2-17.8c-6-2.9-7.3-3.1-17-3.1c-11.4,0.1-18,2-26.5,7.8
		c-5.3,3.6-10.9,3.3-13.9-0.7c-1.7-2.4-2.2-4.6-2.4-13c-0.3-9-0.7-10.6-2.8-13.4c-4.6-6-13.9-5.3-19.1,1.5
		c-2.6,3.5-2.8,4.3-2.8,13.7c0,8.8,0.4,11,2.9,17.2C303.7,927.9,313.3,935.9,325.7,937.5z"/>
	<path class="st0" d="M421.5,918.6L421.5,918.6c4.9,2.9,6.5,3,11.5,0.4c4.9-2.5,7-5.5,7-10c0-3.9-2.3-8-10.8-19.4
		c-2.9-3.8-5.2-7.4-5.2-8c0-0.7,3.4-4.7,7.5-8.9c5.4-5.6,8.1-7.7,9.9-7.7c1.7,0,4.8,2,9.3,6.1c3.7,3.4,7.8,6.5,9.1,7
		c6.5,2.5,12.9-0.1,16.3-6.6c4.4-8.3,6.2-6.3-46.4-52c-17.9-15.6-27.9-22.5-37.4-25.9c-6.5-2.2-10.2-1.5-14.7,2.7
		c-10.8,10.2-8.2,38.5,6.4,69.1C392.7,883.6,414.3,914.2,421.5,918.6z M415.8,841.2c4.2,4.1,4.2,7.4-0.1,11.6
		c-3.4,3.3-6.8,4.1-8.4,2c-2.5-3.5-7.3-15.8-7.5-19.8C399.3,827.3,402.4,828.5,415.8,841.2z"/>
	<path class="st0" d="M1344.6,807.2c3,3.1,5.4,6.1,5.4,6.7s-0.8,1.8-1.7,2.5c-1,0.8-6,5-11.2,9.3c-11.3,9.4-15.1,12.5-27.3,22.4
		c-16.6,13.5-18.9,15.9-19.5,20.5c-0.7,5.2,1.6,9.3,6.6,12.3l0,0c2,1.1,4.9,2.1,6.4,2.1c3.1,0,11.1-5.1,19.8-12.6
		c3-2.7,11-9.4,17.8-14.9s15-12.4,18.4-15.2c8.8-7.5,11.1-7.2,18.2,2.7c1.7,2.3,4.3,4.9,5.9,5.7c6.2,3.2,14.6-2.5,16.1-10.8
		c1.3-6.8-6-17.4-25.4-37.3c-14.6-14.9-18.2-17.6-23.3-17.6c-9.6,0-16.5,8.9-12.7,16.3C1338.8,800.5,1341.7,804.1,1344.6,807.2z"/>
	<path class="st0" d="M456.5,797.1c0.8,2.4,9.1,20.5,12.4,26.9c1,1.9,2.5,4.9,3.3,6.5c0.9,1.7,3.4,6.8,5.7,11.5
		c6.1,12.5,9.8,17.9,13.4,19.6l0,0c5,2.2,10.6,1,14.5-3.1c5.2-5.6,4.9-6.9-6.8-31c-7.6-15.7-8.5-18.1-7.1-18.9c1-0.7,9.8,3,12.3,5.1
		c2.3,2,22.7,12.3,24.4,12.3c2.9,0,8.9-3.9,10.7-6.8c3.3-5.8,2.1-10.7-6.6-27.7c-22-42.7-33.6-63.7-38-69.1
		c-5.4-6.5-14.8-6.6-20.3-0.1c-2.1,2.5-2.5,3.8-2.1,6.8c0.3,2.1,1.1,5,1.9,6.6c5.2,10,6.3,12,7.3,13.3c0.7,0.8,3.3,5.6,6,10.5
		c2.6,5,5.3,9.7,5.9,10.5c3.3,3.9,2.9,9-0.5,9c-1.1,0-3.5-1.1-5.2-2.4c-3.2-2.4-18.8-10.6-24.1-12.5c-5.9-2.3-14.6,5.4-14.6,12.9
		c0,2,1.5,6.7,3.4,10.6C454.2,791.5,456.1,795.7,456.5,797.1z"/>
	<path class="st0" d="M1236.6,832.9c1,2,3.4,4.4,5.4,5.3h0c3.9,2,7.7,2.3,11.2,0.9c1.3-0.5,18.2-16.7,37.6-36L1326,768v-4.4
		c0-3.7-0.6-5.1-3.3-7.9c-4.3-4.6-9.3-5.6-15-3.1c-3,1.3-13.6,11.2-37.4,35.1C1233.4,824.7,1232.7,825.6,1236.6,832.9z"/>
	<path class="st0" d="M1171.2,757.5c-0.4,0.6-2,2.6-3.5,4.6c-3.9,5.2-3.7,9.8,0.9,14.8c1.9,2.2,5.2,4.5,7.2,5.2
		c7.6,2.3,22,8.2,30.2,12.2c4.7,2.2,11,5.1,14,6.4l0,0c6.5,2.7,7.9,2.8,12.4,0.9c6.9-2.9,10.3-10.9,6.9-16.6c-2-3.5-18-12.6-29.8-17
		c-6.3-2.3-7-2.8-7.3-5.5c-0.2-2.3,0.7-4.2,4-8.1c2.4-2.8,6.1-7.3,8.3-10c2.2-2.7,8.2-10,13.3-16.2c11.3-13.8,13.2-16.7,13.2-21.1
		c0-2.8-0.9-4.3-4.5-7.8c-8.3-7.9-13.5-5.8-27.1,11.1c-15.9,19.8-26.9,33.4-33.2,40.9C1173.9,754.2,1171.6,757,1171.2,757.5z"/>
	<path class="st0" d="M547.6,760.6c6.7,6.6,12.8,10,20.4,11.4l0,0c11.7,2.2,30.5-2.1,40.8-9.4c9.5-6.7,13.1-11.8,15.6-22.7
		c2-8.2,2-10.4-0.1-20.9c-2.4-12.6-6.4-18-16-21.6c-4.4-1.7-4.8-1.7-9.7,0c-17.1,6-31.2,19-29.2,27c1.3,5.3,8.7,11.6,13.6,11.6
		c3.2,0,8.1-2.8,11.8-6.7c2.7-2.9,3.5-3.3,4.7-2.3c0.8,0.7,1.5,2.8,1.5,4.8c0,7.8-15.9,17.6-25.3,15.7c-8.8-1.9-17.5-11.2-19.8-21.2
		c-1.4-6.4-1.4-22.6,0-28.8c1.2-5,6.4-13.5,10.6-17.5c1.3-1.2,5.4-3.4,9.1-4.9c7.4-3,11.4-7.2,11.4-11.9c0-4.4-4.6-10.9-8.6-12.2
		c-12.2-4.1-33.1,8.6-41.1,25c-5.8,12.1-7.8,20.9-7.8,35.5c0,11.6,0.3,14,2.9,22C536.8,747.1,540.3,753.4,547.6,760.6z"/>
	<path class="st0" d="M1089,723.4c-4.1,5.4-3.9,8.7,0.8,13.6c3.7,4,4,4.1,29,13c2.9,1.1,9.3,4,14.3,6.5h0c6,2.9,10.4,4.5,12.9,4.5
		c6.6,0,12-6.2,12-13.8c0-6.3-3.7-9.3-19.5-16.2c-19.2-8.4-19.3-8.6-13.8-17.3c3.8-6,6.1-6.3,15.1-2c9.3,4.5,12.8,4.6,17.7,0.9
		c9-6.9,6.5-16.9-5.6-23.1c-7.1-3.7-7.3-6.1-1.2-14.7c2.3-3.1,4.2-4.8,5.6-4.8c1.1,0,7.2,2.5,13.4,5.5s12.3,5.7,13.5,6
		c6.2,1.5,14.1-9.2,11.8-16c-2-5.9-4.8-8.3-17.3-14.3c-16-7.8-22.4-10.4-26.7-10.9c-6-0.8-10.8,4.6-30.6,34.5
		c-9.7,14.7-20.1,30.3-23,34.8c-3,4.4-5.4,8.5-5.4,9S1090.6,721.3,1089,723.4z"/>
	<path class="st0" d="M990,729.7L990,729.7c4.7,1.7,10.7,0.9,13.5-1.7c2.3-2.1,8.7-14.3,10-19c1.5-5.6,6-16.6,7.3-18.2
		c1.9-2.3,6.3-2.2,13.2,0.2c7.9,2.8,22.5,2.7,30.8-0.1c7.9-2.7,16.5-9,22-16.1c5.4-7.1,7.1-15.1,5.5-25.9
		c-1.3-8.3-4.4-13.7-13.3-23.2c-6.9-7.3-14.7-12-24.9-15.1c-18.3-5.4-33.3,4.7-40,26.9c-0.7,2.2-2.1,5.7-3.2,7.7s-3.9,9.2-6.3,16
		c-2.4,6.8-5.4,14.2-6.5,16.5c-1.2,2.3-2.1,4.6-2.1,5.2c0,1-5,14-8,20.6c-1,2.2-2.6,7.1-3.6,10.8c-1.8,6.7-1.8,6.9,0.1,10.5
		C985.8,727.3,987.7,728.9,990,729.7z M1043.4,635.8c6.9-4.6,24.6,9.8,24.6,19.9c0,3.8-6.4,11.3-9.7,11.3c-1.1,0-3.3,0.2-4.9,0.4
		c-4.2,0.6-14.3-1.1-17-2.9c-1.7-1.1-2.4-2.5-2.4-4.8C1034,654.5,1040.6,637.6,1043.4,635.8z"/>
	<path class="st0" d="M667.1,728.9c13.7,2.2,25.9,0.7,36.7-4.8c11.5-5.8,16.5-11.8,20.1-23.8c2.5-8.4,2.7-17.9,0.5-25.4
		c-4-13.5-14-18.6-28.5-14.3c-13.1,3.9-22.9,10.7-24.5,17c-1,3.8,1.1,9.6,4.6,12.9c2.7,2.6,3.9,3,8.4,3c4.2,0,6-0.6,8.9-2.7
		c4.3-3.3,6.3-3.5,7.2-0.7c0.5,1.4-0.2,3.4-2,6c-5.2,7.9-18.5,11.3-27.8,7c-5.3-2.4-8-5.3-10.8-11.6c-2-4.4-2.3-6.6-2.3-17.5
		c0-11.8,0.2-12.9,3.1-19.5c3.4-7.6,9-15,13.8-18.3c1.7-1.1,6.1-2.5,9.8-3.1c8.1-1.2,10.8-2.7,13.1-7.4c2.2-4.7,2-7.8-0.7-11.8
		c-5.2-7.9-15.1-8.9-29.2-2.9c-11.7,5-20.3,13.8-27.3,28.1c-6.6,13.4-7.6,18.3-7.6,35.4c-0.1,17,1.1,22.3,6.8,32.3
		C646.5,718.9,656.7,727.2,667.1,728.9z"/>
	<path class="st0" d="M752.6,720.9L752.6,720.9c1.9,1.5,4.1,2.1,7.6,2.1c9.5,0,11.3-2.8,12.4-20.3c0.8-14,1.7-15.6,9-16.8
		c6.4-1,14.6-1.1,16.2-0.1c1.7,1.1,3.2,6.7,3.2,11.7c0,6.4,3.7,12.5,9.2,15.4c4.3,2.1,5.1,2.2,8,1.1c1.8-0.7,4.5-2.4,6-3.8
		c4.7-4.4,4.8-3.8-2.3-41.2c-1.1-6.3-2.9-16.7-3.9-23c-2.3-14.4-6.1-30.8-9-38.9c-4.1-11-12-15.8-21.8-13c-3.6,1-6.2,2.9-11.4,8.1
		c-3.8,3.8-6.8,7.5-6.8,8.2c0,0.6-1.3,3-2.8,5.2c-3.1,4.2-7.5,14.4-9.2,21.2c-0.6,2.3-1.9,6.2-3,8.7c-1,2.4-2.4,8.8-3,14.2
		C745.4,708.4,745.6,715.4,752.6,720.9z M792.8,658.2L792.8,658.2c-0.8,1.1-3.3,2-6.8,2.4c-7.6,0.9-8.5-0.3-7-8.6
		c1.3-6.9,6.8-19,8.7-19c1.8,0,2.2,1.1,3.9,10.7c0.8,4.8,1.7,9.7,2,10.8C793.9,655.6,793.5,657.3,792.8,658.2z"/>
	<path class="st0" d="M841.2,717.1c2.5,2.4,3.8,2.9,7.8,2.9c4.1,0,5.5-0.5,8.4-3c4.3-3.8,5.2-6.6,6.5-21c2.1-21.7,3.4-25.9,7.9-24.3
		c3,1.1,22.2,19.5,26.8,25.7c10.6,14.2,18.7,16.2,26.8,6.6c4.5-5.4,3.2-10.3-5.5-20.5c-6.7-7.8-15.6-17.2-20.2-21.2
		c-2.1-1.7-3.7-3.6-3.7-4.2c0-0.6,3.1-4.5,6.9-8.7c9.7-10.8,12.6-16.8,12.6-26.4c0-8.8-2.4-13.9-9.7-20.7c-6.6-6-11.8-7.6-23-7.1
		c-11.3,0.6-15.8,2.8-24.4,12.1c-8.3,8.9-10.3,14-16.5,42.2c-0.4,2.2-1.3,12.3-1.9,22.5s-1.5,22.4-2,27.1
		C836.8,709.7,837.4,713.3,841.2,717.1L841.2,717.1z M874.2,638c-3.8,0-4.1-1.4-1.3-6.9c4-7.8,13-13.3,15.8-9.6
		c0.7,1.1,1.3,2.3,1.3,2.9c0,0.5-2.8,3.8-6.3,7.3C878.6,636.8,876.7,638,874.2,638z"/>
</g>
</svg>
